<?xml version="1.0" standalone="no"?>
<!DOCTYPE svg PUBLIC "-//W3C//DTD SVG 1.1//EN" "http://www.w3.org/Graphics/SVG/1.1/DTD/svg11.dtd" >
<svg xmlns="http://www.w3.org/2000/svg">
<metadata></metadata>
<defs>
<font id="misobold" horiz-adv-x="416" >
<font-face units-per-em="1000" ascent="800" descent="-200" />
<missing-glyph horiz-adv-x="192" />
<glyph horiz-adv-x="1000" />
<glyph horiz-adv-x="1000" />
<glyph unicode="&#xd;" horiz-adv-x="1000" />
<glyph unicode=" "  horiz-adv-x="192" />
<glyph unicode="&#x09;" horiz-adv-x="192" />
<glyph unicode="&#xa0;" horiz-adv-x="192" />
<glyph unicode="!" horiz-adv-x="200" d="M100 -20q-24 0 -41 17t-17 41t17 41t41 17t41 -17t17 -41t-17 -41t-41 -17zM52 588q0 20 14 34t34 14t34 -14t14 -34v-400q0 -20 -14 -34t-34 -14t-34 14t-14 34v400z" />
<glyph unicode="&#x22;" horiz-adv-x="352" d="M256 656q20 0 34 -14t14 -34v-100q0 -20 -14 -34t-34 -14t-34 14t-14 34v100q0 20 14 34t34 14zM48 608q0 20 14 34t34 14t34 -14t14 -34v-100q0 -20 -14 -34t-34 -14t-34 14t-14 34v100z" />
<glyph unicode="#" horiz-adv-x="458" d="M409 362h-54v-69h54q19 0 32.5 -13t13.5 -32t-13.5 -32.5t-32.5 -13.5h-54v-174q0 -19 -13.5 -32.5t-32.5 -13.5t-32 13.5t-13 32.5v174h-69v-174q0 -19 -13.5 -32.5t-32.5 -13.5t-32 13.5t-13 32.5v174h-55q-19 0 -32 13.5t-13 32.5t13 32t32 13h55v69h-55 q-19 0 -32 13.5t-13 32.5t13 32t32 13h55v155q0 19 13 32t32 13t32.5 -13t13.5 -32v-155h69v155q0 19 13 32t32 13t32.5 -13t13.5 -32v-155h54q19 0 32.5 -13t13.5 -32t-13.5 -32.5t-32.5 -13.5zM264 293v69h-69v-69h69z" />
<glyph unicode="$" d="M303 307q58 -47 60 -123q0 -76 -57 -125q-23 -20 -57 -32v-39q0 -20 -14 -34t-34 -14t-34 14t-14 34v39q-61 19 -93 74q-10 17 -4.5 36t22.5 30q17 10 36 4.5t29 -22.5q16 -27 46 -32q31 -5 54 15q24 19 24 51q-2 33 -25 50l-125 103q-58 45 -58 120q-2 75 55 122 q22 20 55 31v39q0 20 14 34t34 14q19 0 33.5 -14t14.5 -34v-40q58 -17 88 -71q10 -17 5 -36t-22 -30q-17 -10 -36 -4.5t-30 22.5q-14 25 -43 30t-51 -14q-23 -19 -21 -48q0 -28 22 -47z" />
<glyph unicode="%" horiz-adv-x="593" d="M437 251q55 0 94 -39t39 -94t-39 -94t-94 -39t-94 38.5t-39 94.5q0 55 39 94t94 39zM437 71q19 0 33 13.5t14 33.5t-14 33.5t-33 13.5t-33 -13.5t-14 -33.5t14 -33.5t33 -13.5zM290 518q0 -55 -39 -94t-94 -39t-94 38.5t-39 94.5q0 55 39 94t94 39t94 -39t39 -94z M110 518q0 -20 14 -33.5t33 -13.5t33 13.5t14 33.5t-14 33.5t-33 13.5t-33 -13.5t-14 -33.5zM458 651q18 -8 24.5 -27t-2.5 -37l-280 -580q-8 -18 -27 -24.5t-37 2.5q-18 8 -24.5 27t2.5 37l280 580q8 18 27 24.5t37 -2.5z" />
<glyph unicode="&#x26;" horiz-adv-x="493" d="M351 72l-7 -11q-36 -61 -108 -77q-71 -16 -130 25q-60 41 -71 113q-12 70 32 129l73 94l-61 78l-3 4q-23 35 -24 76t19 77q20 37 56.5 57.5t78.5 18.5q41 -2 76 -25t52 -60q18 -38 13.5 -79t-29.5 -74l-57 -73l68 -89l12 -14l18 31q11 17 30 21.5t36 -5.5t22 -29.5 t-5 -36.5l-38 -63l71 -93q12 -16 10 -35.5t-18 -31.5t-36 -9.5t-32 18.5zM156 480l45 -57l41 53q19 25 6 54q-14 28 -46 30q-30 2 -47 -27q-15 -27 1 -53zM216 78q30 6 46 33l26 42l-35 45l-52 68l-58 -74q-19 -25 -14 -55t31 -49q26 -18 56 -10z" />
<glyph unicode="'" horiz-adv-x="192" d="M144 508q0 -20 -14 -34t-34 -14t-34 14t-14 34v100q0 20 14 34t34 14t34 -14t14 -34v-100z" />
<glyph unicode="(" horiz-adv-x="268" d="M253 -22q13 -16 10.5 -35.5t-18.5 -32.5q-16 -12 -35.5 -10t-31.5 18q-68 88 -104 191q-34 101 -34 209t34 209q36 103 104 191q12 15 31.5 17.5t35.5 -9.5q16 -13 18.5 -32.5t-10.5 -35.5q-59 -76 -88 -162q-29 -89 -29 -178q0 -91 29 -178q29 -86 88 -162z" />
<glyph unicode=")" horiz-adv-x="269" d="M228 328q0 -106 -35 -209q-34 -102 -103 -191q-12 -16 -31.5 -18t-35.5 10q-16 13 -18.5 32.5t9.5 35.5q59 75 89 162q29 87 29 178q0 89 -29 178q-30 87 -89 162q-12 16 -9.5 35.5t18.5 32.5q16 12 35.5 9.5t31.5 -17.5q69 -89 103 -191q35 -103 35 -209z" />
<glyph unicode="*" d="M315 344l-61 35v-71q0 -19 -13.5 -32.5t-32.5 -13.5t-32 13.5t-13 32.5v71l-62 -35q-16 -10 -34.5 -5t-27.5 21q-10 17 -5 35t21 27l62 36l-62 36q-16 9 -21 27t5 35q9 16 27 21t35 -5l62 -35v71q0 19 13 32t32 13t32.5 -13t13.5 -32v-71l61 35q17 10 35 5t27 -21 q10 -17 5 -35t-21 -27l-62 -36l62 -36q16 -9 21 -27t-5 -35q-9 -16 -27.5 -21t-34.5 5z" />
<glyph unicode="+" d="M328 336q20 0 34 -14t14 -34t-14 -34t-34 -14h-72v-72q0 -20 -14 -34t-34 -14t-34 14t-14 34v72h-72q-20 0 -34 14t-14 34t14 34t34 14h72v72q0 20 14 34t34 14t34 -14t14 -34v-72h72z" />
<glyph unicode="," horiz-adv-x="192" d="M63 -6q4 2 4 6v4q-32 10 -32 44q0 19 13 32t32 13h32q19 0 32.5 -13t13.5 -32v-48q0 -30 -16.5 -54.5t-43.5 -35.5q-18 -7 -35 0t-25 24q-7 18 0 35t25 25z" />
<glyph unicode="-" d="M88 240q-20 0 -34 14t-14 34t14 34t34 14h240q20 0 34 -14t14 -34t-14 -34t-34 -14h-240z" />
<glyph unicode="." horiz-adv-x="192" d="M38 38q0 24 17 41t41 17t41 -17t17 -41t-17 -41t-41 -17t-41 17t-17 41z" />
<glyph unicode="/" d="M345 693q19 -7 27 -25t1 -36l-240 -660q-7 -19 -24.5 -27.5t-36.5 -1.5t-27.5 24.5t-1.5 36.5l240 660q7 19 25 27.5t37 1.5z" />
<glyph unicode="0" d="M208 -20q-70 0 -119 49t-49 119v340q0 70 49 119t119 49q69 0 118.5 -49t49.5 -119v-340q0 -70 -49.5 -119t-118.5 -49zM208 560q-30 0 -51 -21t-21 -51v-340q0 -30 21 -51t51 -21q29 0 50.5 21t21.5 51v340q0 30 -21.5 51t-50.5 21z" />
<glyph unicode="1" d="M146 454q-14 -14 -34 -14t-34 14t-14 34t14 34l120 120q23 23 52 10q30 -12 30 -44v-580q0 -20 -14 -34t-34 -14t-34 14t-14 34v464z" />
<glyph unicode="2" d="M68 506q-17 11 -22.5 30t4.5 36q34 59 101 78q64 18 126 -15q60 -32 80 -99q19 -66 -12 -126q-123 -234 -174 -330h145q20 0 34 -14t14 -34t-14 -34t-34 -14h-224q-26 0 -41 23q-13 22 -2 47l211 400q13 27 5 55q-9 28 -34 42q-26 14 -55 6q-27 -8 -43 -33 q-10 -17 -29 -22.5t-36 4.5z" />
<glyph unicode="3" d="M201 78q23 7 38 26t15 44v60q0 30 -21 51t-51 21q-20 0 -34 14t-14 34t14 34t34 14q30 0 51 21t21 51v40q0 24 -15 43.5t-38 25.5q-24 7 -46.5 -2.5t-34.5 -30.5q-11 -17 -30 -22.5t-36 4.5q-17 11 -22.5 30t4.5 36q28 49 81 71t108 7q55 -14 90 -59.5t35 -102.5v-40 q0 -72 -51 -120q51 -49 51 -120v-60q0 -57 -35 -102.5t-90 -59.5q-55 -15 -108 7t-81 71q-10 17 -4.5 36t22.5 30q17 10 36 4.5t30 -22.5q12 -21 34.5 -30.5t46.5 -3.5z" />
<glyph unicode="4" d="M74 120q-25 0 -39 20q-14 18 -7 43l140 440q6 19 24 28t37 3q33 -12 33 -46q0 -5 -2 -15q-91 -285 -120 -377h86v92q0 20 14 34t34 14t34 -14t14 -34v-92h32q20 0 34 -14t14 -34t-14 -34t-34 -14h-32v-92q0 -20 -14 -34t-34 -14t-34 14t-14 34v92h-152z" />
<glyph unicode="5" d="M91 272q-16 4 -26 17t-10 29v286q0 20 14.5 34t33.5 14h208q19 0 33.5 -14t14.5 -34t-14 -34t-34 -14h-160v-140q49 17 100 4q55 -14 89.5 -59.5t34.5 -102.5v-110q0 -57 -34.5 -102.5t-89.5 -59.5q-55 -15 -107.5 6.5t-81.5 71.5q-10 17 -5 36t22 30q17 10 36 4.5 t30 -22.5q12 -21 34.5 -30.5t46.5 -3.5q23 7 38 26t15 44v110q0 24 -15 43.5t-38 25.5q-24 7 -46.5 -2.5t-34.5 -30.5q-19 -32 -54 -22z" />
<glyph unicode="6" d="M217 -20q-69 0 -118.5 49t-49.5 119v340q0 57 35 102.5t90 59.5q55 15 108 -7t81 -71q10 -17 4.5 -36t-22.5 -30q-17 -10 -36 -4.5t-29 22.5q-13 21 -35.5 30.5t-45.5 2.5q-24 -6 -39 -25.5t-15 -43.5v-88q35 16 72 16q70 0 119 -49t49 -119v-100q0 -70 -49 -119 t-119 -49zM217 320q-30 0 -51 -21t-21 -51v-100q0 -30 21 -51t51 -21t51 21t21 51v100q0 30 -21 51t-51 21z" />
<glyph unicode="7" d="M85 476q-20 0 -34 14t-14 34v80q0 20 14.5 34t33.5 14h240q23 0 38 -18q14 -18 9 -41l-140 -576q-4 -19 -21 -30t-37 -6q-17 5 -27 18t-10 29q0 3 2 11q102 421 125 517h-131v-32q0 -20 -14 -34t-34 -14z" />
<glyph unicode="8" d="M208 -20q-69 0 -118.5 49t-49.5 119v60q0 69 51 120q-51 49 -51 120v40q0 70 49.5 119t118.5 49q70 0 119 -49t49 -119v-40q0 -72 -50 -120q50 -50 50 -120v-60q0 -70 -49 -119t-119 -49zM136 448q0 -30 21.5 -51t50.5 -21q30 0 51 21t21 51v40q0 30 -21 51t-51 21 q-29 0 -50.5 -21t-21.5 -51v-40zM280 208q0 30 -21 51t-51 21q-29 0 -50.5 -21t-21.5 -51v-60q0 -30 21.5 -51t50.5 -21q30 0 51 21t21 51v60z" />
<glyph unicode="9" d="M199 220q-69 0 -118.5 49t-49.5 119v100q0 70 49.5 119t118.5 49q70 0 119 -49t49 -119v-340q0 -57 -34.5 -102.5t-89.5 -59.5q-55 -15 -108 7t-81 71q-10 17 -5 36t22 30q17 10 36.5 4.5t29.5 -22.5q12 -21 35 -30.5t46 -3.5q23 7 38 26t15 44v88q-34 -16 -72 -16z M199 560q-29 0 -50.5 -21t-21.5 -51v-100q0 -30 21.5 -51t50.5 -21q30 0 51 21t21 51v100q0 30 -21 51t-51 21z" />
<glyph unicode=":" horiz-adv-x="192" d="M96 -20q-24 0 -41 17t-17 41t17 41t41 17t41 -17t17 -41t-17 -41t-41 -17zM96 360q-24 0 -41 17t-17 41t17 41t41 17t41 -17t17 -41t-17 -41t-41 -17z" />
<glyph unicode=";" horiz-adv-x="192" d="M112 93q19 0 32.5 -13t13.5 -32v-48q0 -30 -16.5 -54.5t-43.5 -35.5q-18 -7 -35 0t-25 24q-7 18 0 35t25 25q4 2 4 6v4q-32 10 -32 44q0 19 13 32t32 13h32zM38 418q0 24 17 41t41 17t41 -17t17 -41t-17 -41t-41 -17t-41 17t-17 41z" />
<glyph unicode="&#x3c;" d="M368 488q0 -22 -18 -37q-136 -114 -195 -163l195 -163q18 -15 18 -37q0 -17 -11 -31q-13 -15 -33 -17t-35 11l-240 200q-17 14 -17 37t17 37l240 200q15 13 35 11t33 -17q11 -14 11 -31z" />
<glyph unicode="=" d="M328 256q20 0 34 -14t14 -34t-14 -34t-34 -14h-240q-20 0 -34 14t-14 34t14 34t34 14h240zM328 416q20 0 34 -14t14 -34t-14 -34t-34 -14h-240q-20 0 -34 14t-14 34t14 34t34 14h240z" />
<glyph unicode="&#x3e;" d="M48 88q0 22 17 37q137 114 196 163l-196 163q-17 15 -17 37q0 17 11 31q13 15 32.5 17t35.5 -11l240 -200q17 -14 17 -37t-17 -37l-240 -200q-16 -13 -35.5 -11t-32.5 17q-11 14 -11 31z" />
<glyph unicode="?" horiz-adv-x="357" d="M150 559q-33 -8 -48 -35q-10 -17 -29.5 -22.5t-36.5 4.5t-22 29.5t5 36.5q37 65 112 81q76 14 135 -31q61 -47 66 -122q5 -77 -48 -130v0l-51 -51q-21 -23 -21 -51v-80q0 -20 -14 -34t-34 -14t-34 14t-14 34v80q0 67 49 118l51 51q23 25 20 56q-2 32 -28 52t-58 14z M222 38q0 -24 -17 -41t-41 -17t-41 17t-17 41t17 41t41 17t41 -17t17 -41z" />
<glyph unicode="@" horiz-adv-x="764" d="M619 554q98 -96 98 -236v-186q0 -60 -42.5 -102.5t-102.5 -42.5h-200q-60 0 -102.5 42.5t-42.5 102.5t42.5 102.5t102.5 42.5h55v53q0 34 -34 49q-33 13 -60 -12q-14 -13 -32 -13t-32 13q-13 13 -12.5 32t13.5 32q31 30 73.5 38.5t83.5 -7.5q42 -18 65 -52q25 -35 25 -80 v-253h55q23 0 39 16t16 39v186q0 102 -71 173q-74 72 -174 72q-101 0 -173 -72t-72 -173v-180q0 -100 72 -174q71 -71 173 -71h110q19 0 32 -13.5t13 -31.5q0 -19 -13 -32t-32 -13h-110q-139 0 -237 98t-98 237v180q0 138 98 236q99 99 237 99q140 0 237 -99zM372 187 q-22 0 -38.5 -16.5t-16.5 -38.5q0 -23 16 -39t39 -16h55v110h-55z" />
<glyph unicode="A" horiz-adv-x="432" d="M262 621l160 -580q5 -19 -4.5 -36.5t-28.5 -22.5t-36.5 4.5t-22.5 28.5q-12 43 -29 105h-170l-29 -105q-5 -19 -22.5 -28.5t-36.5 -4.5t-28.5 22.5t-4.5 36.5l160 580q4 16 16.5 25.5t29.5 9.5t29.5 -9.5t16.5 -25.5zM158 216h116q-6 23 -27 98.5t-31 112.5 q-10 -37 -31 -112.5t-27 -98.5z" />
<glyph unicode="B" horiz-adv-x="428" d="M388 448q0 -71 -51 -120q51 -51 51 -120v-56q0 -70 -49.5 -119t-118.5 -49h-120q-20 0 -34 14t-14 34v572q0 20 14 34t34 14h120q69 0 118.5 -49t49.5 -119v-36zM292 208q0 30 -21 51t-51 21h-72v-200h72q30 0 51 21t21 51v56zM148 376h72q30 0 51 21t21 51v36 q0 30 -21 51t-51 21h-72v-180z" />
<glyph unicode="C" horiz-adv-x="385" d="M164 -14q-55 14 -89.5 59.5t-34.5 102.5v340q0 57 34.5 102.5t89.5 59.5q55 15 107.5 -6.5t81.5 -71.5q10 -17 5 -36t-22 -30q-17 -10 -36 -4.5t-30 22.5q-12 21 -34.5 30.5t-46.5 2.5q-23 -6 -38 -25.5t-15 -43.5v-340q0 -25 15 -44t38 -26q24 -6 46.5 3.5t34.5 30.5 q11 17 30 22.5t36 -4.5q17 -11 22 -30t-5 -36q-29 -50 -81.5 -71.5t-107.5 -6.5z" />
<glyph unicode="D" horiz-adv-x="428" d="M100 652h120q70 0 119 -49t49 -119v-332q0 -70 -49 -119t-119 -49h-120q-20 0 -34 14t-14 34v572q0 20 14 34t34 14zM292 484q0 30 -21 51t-51 21h-72v-476h72q30 0 51 21t21 51v332z" />
<glyph unicode="E" horiz-adv-x="368" d="M52 604q0 20 14 34t34 14h200q20 0 34 -14t14 -34t-14 -34t-34 -14h-152v-180h132q20 0 34 -14t14 -34t-14 -34t-34 -14h-132v-200h152q20 0 34 -14t14 -34t-14 -34t-34 -14h-200q-20 0 -34 14t-14 34v572z" />
<glyph unicode="F" horiz-adv-x="360" d="M100 -16q-20 0 -34 14t-14 34v572q0 20 14 34t34 14h200q20 0 34 -14t14 -34t-14 -34t-34 -14h-152v-180h132q20 0 34 -14t14 -34t-14 -34t-34 -14h-132v-248q0 -20 -14 -34t-34 -14z" />
<glyph unicode="G" horiz-adv-x="412" d="M328 356q20 0 34 -14t14 -34v-160q0 -70 -49 -119t-119 -49q-69 0 -118.5 49t-49.5 119v340q0 57 35 102.5t90 59.5q55 15 108 -7t81 -71q10 -17 4.5 -36t-22.5 -30q-17 -10 -36 -4.5t-29 22.5q-13 21 -35.5 30.5t-45.5 2.5q-24 -6 -39 -25.5t-15 -43.5v-340 q0 -30 21.5 -51t50.5 -21q30 0 51 21t21 51v112h-52q-20 0 -34 14t-14 34t14 34t34 14h100z" />
<glyph unicode="H" horiz-adv-x="440" d="M292 608q0 20 14 34t34 14t34 -14t14 -34v-580q0 -20 -14 -34t-34 -14t-34 14t-14 34v252h-144v-252q0 -20 -14 -34t-34 -14t-34 14t-14 34v580q0 20 14 34t34 14t34 -14t14 -34v-232h144v232z" />
<glyph unicode="I" horiz-adv-x="200" d="M100 -20q-20 0 -34 14t-14 34v580q0 20 14 34t34 14t34 -14t14 -34v-580q0 -20 -14 -34t-34 -14z" />
<glyph unicode="J" horiz-adv-x="333" d="M285 148q0 -45 -23 -84t-61 -62q-39 -22 -84.5 -22t-83.5 22q-17 11 -22.5 30t4.5 36t29.5 22.5t36.5 -4.5q35 -21 72 0q36 20 36 62v460q0 20 14 34t34 14q19 0 33.5 -14t14.5 -34v-460z" />
<glyph unicode="K" horiz-adv-x="421" d="M249 369l155 -320q8 -18 1.5 -37t-24.5 -27q-18 -9 -36.5 -2.5t-27.5 24.5l-131 273l-38 -52v-200q0 -20 -14 -34t-34 -14t-34 14t-14 34v580q0 20 14 34t34 14t34 -14t14 -34v-215l173 243q12 16 31.5 19t35.5 -8q17 -11 20 -30.5t-9 -36.5z" />
<glyph unicode="L" horiz-adv-x="348" d="M100 -16q-20 0 -34 14t-14 34v576q0 20 14 34t34 14t34 -14t14 -34v-528h152q20 0 34 -14t14 -34t-14 -34t-34 -14h-200z" />
<glyph unicode="M" horiz-adv-x="520" d="M100 -20q-20 0 -34 14t-14 34v580q0 17 10.5 30t26.5 17q17 4 32 -3.5t22 -23.5q71 -149 117 -247l116 247q17 35 54 27q16 -4 27 -17t11 -30v-580q0 -20 -14 -34t-34 -14t-34 14t-14 34v365l-69 -145q-13 -28 -43 -28q-31 0 -44 28q-35 74 -68 145v-365q0 -20 -14 -34 t-34 -14z" />
<glyph unicode="N" horiz-adv-x="480" d="M391 -19q-17 -4 -32 3.5t-22 22.5q-106 219 -189 391v-370q0 -20 -14 -34t-34 -14t-34 14t-14 34v580q0 17 10.5 30t26.5 17q37 8 54 -26q106 -219 189 -391v370q0 20 14 34t34 14t34 -14t14 -34v-580q0 -16 -10.5 -29.5t-26.5 -17.5z" />
<glyph unicode="O" d="M208 -20q-70 0 -119 49t-49 119v340q0 70 49 119t119 49t119 -49t49 -119v-340q0 -70 -49 -119t-119 -49zM208 560q-30 0 -51 -21t-21 -51v-340q0 -30 21 -51t51 -21t51 21t21 51v340q0 30 -21 51t-51 21z" />
<glyph unicode="P" horiz-adv-x="400" d="M52 604q0 20 14 34t34 14h120q70 0 119 -49t49 -119v-56q0 -70 -49 -119t-119 -49h-72v-232q0 -20 -14 -34t-34 -14t-34 14t-14 34v576zM292 484q0 30 -21 51t-51 21h-72v-200h72q30 0 51 21t21 51v56z" />
<glyph unicode="Q" d="M376 488v-340q0 -67 -46 -115l40 -69q10 -17 4.5 -36t-22.5 -29t-36 -5t-29 22l-40 69q-20 -5 -39 -5q-69 0 -118.5 49t-49.5 119v340q0 70 49.5 119t118.5 49q70 0 119 -49t49 -119zM136 148q0 -30 21 -51t51 -21t51 21t21 51v340q0 30 -21 51t-51 21t-51 -21t-21 -51 v-340z" />
<glyph unicode="R" d="M388 428q0 -48 -24.5 -88t-65.5 -61l87 -234q7 -19 -1 -37t-27 -25t-37 1t-25 27l-93 249h-54v-232q0 -20 -14 -34t-34 -14t-34 14t-14 34v576q0 20 14 34t34 14h120q70 0 119 -49t49 -119v-56zM148 556v-200h72q30 0 51 21t21 51v56q0 30 -21 51t-51 21h-72z" />
<glyph unicode="S" horiz-adv-x="382" d="M231 92q27 19 30 55q3 34 -21 60l-160 164q-53 53 -47 130q6 75 66 121q60 45 135 31q75 -16 112 -81q10 -17 4.5 -36t-22.5 -30q-17 -10 -36 -4.5t-29 22.5q-17 27 -48 35q-32 6 -58 -14q-26 -19 -28 -52q-3 -32 20 -55l159 -164q55 -57 49 -134t-68 -125 q-62 -46 -139 -32q-76 16 -115 83q-10 17 -5 36.5t22 29.5t36 4.5t30 -22.5q17 -29 51 -37q35 -6 62 15z" />
<glyph unicode="T" horiz-adv-x="380" d="M60 652h260q20 0 34 -14t14 -34t-14 -34t-34 -14h-82v-528q0 -20 -14 -34t-34 -14t-34 14t-14 34v528h-82q-20 0 -34 14t-14 34t14 34t34 14z" />
<glyph unicode="U" horiz-adv-x="424" d="M140 148q0 -30 21 -51t51 -21q29 0 50.5 21t21.5 51v460q0 20 14 34t34 14t34 -14t14 -34v-460q0 -70 -49.5 -119t-118.5 -49q-70 0 -119 49t-49 119v460q0 20 14 34t34 14t34 -14t14 -34v-460z" />
<glyph unicode="V" horiz-adv-x="448" d="M178 15l-160 580q-5 19 4.5 36.5t29.5 22.5q19 5 36.5 -4.5t22.5 -28.5q67 -243 114 -413l113 413q5 19 22.5 28.5t36.5 4.5q20 -5 29.5 -22.5t4.5 -36.5l-160 -580q-4 -16 -17 -25.5t-29 -9.5q-37 0 -47 35z" />
<glyph unicode="W" horiz-adv-x="698" d="M57 655q20 5 37 -6t21 -30q52 -215 94 -386l93 386q4 16 17 26.5t30 10.5t29.5 -10.5t16.5 -26.5q52 -215 94 -386l93 386q4 19 21 30t37 6t30 -22t5 -36l-140 -580q-4 -16 -16.5 -26.5t-29.5 -10.5t-30 10.5t-17 26.5q-52 215 -93 386l-94 -386q-4 -16 -16.5 -26.5 t-29.5 -10.5t-30 10.5t-17 26.5l-140 580q-4 19 6 36t29 22z" />
<glyph unicode="X" horiz-adv-x="422" d="M39 -15q-17 9 -23.5 28t2.5 36l139 279l-129 258q-9 18 -2.5 37t23.5 28q18 9 37 2.5t28 -24.5l97 -194l97 194q9 18 28 24.5t36 -2.5q18 -9 24.5 -28t-2.5 -37l-129 -258l139 -279q9 -17 2.5 -36t-24.5 -28q-17 -9 -36 -2.5t-28 23.5l-107 215l-107 -215 q-9 -17 -28 -23.5t-37 2.5z" />
<glyph unicode="Y" horiz-adv-x="402" d="M201 -20q-20 0 -34 14t-14 34v289l-135 269q-9 18 -2.5 37t24.5 28q17 9 36 2.5t28 -24.5q56 -111 97 -194l97 194q9 18 28 24.5t36 -2.5q18 -9 24.5 -28t-2.5 -37l-135 -269v-289q0 -20 -14 -34t-34 -14z" />
<glyph unicode="Z" horiz-adv-x="384" d="M24 604q0 20 14 34t34 14h240q25 0 40 -21q8 -13 8 -27q0 -11 -4 -19q-168 -401 -212 -505h168q20 0 34 -14t14 -34t-14 -34t-34 -14h-240q-25 0 -40 21q-8 13 -8 27q0 11 4 19q168 401 212 505h-168q-20 0 -34 14t-14 34z" />
<glyph unicode="[" horiz-adv-x="256" d="M100 -96q-20 0 -34 14t-14 34v732q0 20 14 34t34 14h100q20 0 34 -14t14 -34t-14 -34t-34 -14h-52v-636h52q20 0 34 -14t14 -34t-14 -34t-34 -14h-100z" />
<glyph unicode="\" d="M133 664l240 -660q7 -19 -1 -36.5t-27 -24.5t-37 1.5t-25 27.5l-240 660q-7 18 1.5 36t27.5 25t36.5 -1.5t24.5 -27.5z" />
<glyph unicode="]" horiz-adv-x="256" d="M156 732q20 0 34 -14t14 -34v-732q0 -20 -14 -34t-34 -14h-100q-20 0 -34 14t-14 34t14 34t34 14h52v636h-52q-20 0 -34 14t-14 34t14 34t34 14h100z" />
<glyph unicode="^" horiz-adv-x="500" d="M61 392q-15 13 -16.5 33t11.5 35l158 180q14 16 36 16t36 -16l158 -180q13 -15 11.5 -35t-16.5 -33t-34.5 -12t-33.5 16q-78 90 -121 139l-121 -139q-14 -15 -33.5 -16t-34.5 12z" />
<glyph unicode="_" horiz-adv-x="500" d="M500 -64q20 0 34 -14t14 -34t-14 -34t-34 -14h-500q-20 0 -34 14t-14 34t14 34t34 14h500z" />
<glyph unicode="`" horiz-adv-x="500" d="M168 657q12 13 29.5 14t31.5 -11l100 -90q13 -12 14 -29.5t-11 -31.5q-12 -13 -29.5 -14t-30.5 11l-100 90q-13 12 -14 30t10 31z" />
<glyph unicode="a" horiz-adv-x="352" d="M160 277h55v53q0 36 -33 49q-34 14 -58 -12q-13 -13 -31.5 -13t-31.5 13t-13 32t13 32q31 31 73 39.5t82 -8.5q40 -16 64.5 -52t24.5 -80v-298q0 -19 -13 -32t-32 -13h-100q-60 0 -102.5 42.5t-42.5 102.5t42.5 102.5t102.5 42.5zM160 187q-23 0 -39 -16t-16 -39t16 -39 t39 -16h55v110h-55z" />
<glyph unicode="b" horiz-adv-x="388" d="M100 -13q-19 0 -32 13t-13 32v596q0 19 13 32t32 13t32 -13t13 -32v-159h55q60 0 102.5 -42.5t42.5 -102.5v-192q0 -60 -42.5 -102.5t-102.5 -42.5h-100zM200 379h-55v-302h55q22 0 38.5 16.5t16.5 38.5v192q0 22 -16.5 38.5t-38.5 16.5z" />
<glyph unicode="c" horiz-adv-x="328" d="M132 -6q-41 17 -65 53.5t-24 80.5v200q0 44 24 80.5t65 53.5t84 8t74 -40q14 -13 14 -31.5t-14 -31.5q-13 -13 -31.5 -13t-31.5 13q-26 26 -60 12q-34 -15 -34 -51v-200q0 -36 34 -51q34 -14 60 12q13 13 31.5 13t31.5 -13q14 -13 14 -32t-14 -32q-31 -31 -74 -39.5 t-84 8.5z" />
<glyph unicode="d" horiz-adv-x="388" d="M188 -13q-60 0 -102.5 42.5t-42.5 102.5v192q0 60 42.5 102.5t102.5 42.5h55v159q0 19 13 32t32 13t32 -13t13 -32v-596q0 -19 -13 -32t-32 -13h-100zM188 379q-22 0 -38.5 -16.5t-16.5 -38.5v-192q0 -22 16.5 -38.5t38.5 -16.5h55v302h-55z" />
<glyph unicode="e" horiz-adv-x="368" d="M133 -6q-41 17 -65.5 53.5t-24.5 80.5v200q0 60 42.5 102.5t102.5 42.5t102.5 -42.5t42.5 -102.5v-100q0 -19 -13 -32t-32 -13h-155v-55q0 -36 34 -51q35 -13 60 12q13 13 32 13t32 -13q13 -14 13 -32.5t-13 -31.5q-32 -31 -74.5 -39.5t-83.5 8.5zM188 383 q-22 0 -38.5 -16.5t-16.5 -38.5v-55h110v55q0 22 -16.5 38.5t-38.5 16.5z" />
<glyph unicode="f" horiz-adv-x="296" d="M56 379q-19 0 -32 13t-13 32t13 32t32 13h35v59q0 60 42.5 102.5t102.5 42.5q19 0 32 -13t13 -32t-13 -32t-32 -13q-22 0 -38.5 -16.5t-16.5 -38.5v-59h55q19 0 32 -13t13 -32t-13 -32t-32 -13h-55v-351q0 -19 -13 -32t-32 -13t-32 13t-13 32v351h-35z" />
<glyph unicode="g" horiz-adv-x="384" d="M188 -13q-60 0 -102.5 42.5t-42.5 102.5v192q0 60 42.5 102.5t102.5 42.5h100q19 0 32 -13t13 -32v-496q0 -44 -24 -80.5t-65 -53.5t-84 -8.5t-74 39.5q-14 13 -14 32t14 32q13 13 31.5 13t31.5 -13q26 -26 60 -12q34 15 34 51v59h-55zM188 379q-22 0 -38.5 -16.5 t-16.5 -38.5v-192q0 -22 16.5 -38.5t38.5 -16.5h55v302h-55z" />
<glyph unicode="h" horiz-adv-x="392" d="M100 -17q-19 0 -32 13t-13 32v600q0 19 13 32t32 13t32 -13t13 -32v-159h55q60 0 102.5 -42.5t42.5 -102.5v-296q0 -19 -13 -32t-32 -13t-32 13t-13 32v296q0 23 -16 39t-39 16h-55v-351q0 -19 -13 -32t-32 -13z" />
<glyph unicode="i" horiz-adv-x="200" d="M100 523q-22 0 -38.5 16.5t-16.5 38.5t16.5 38.5t38.5 16.5q23 0 39 -16t16 -39t-16 -39t-39 -16zM145 28q0 -19 -13 -32t-32 -13t-32 13t-13 32v400q0 19 13 32t32 13t32 -13t13 -32v-400z" />
<glyph unicode="j" horiz-adv-x="208" d="M108 523q-22 0 -38.5 16.5t-16.5 38.5t16.5 38.5t38.5 16.5q23 0 39 -16t16 -39t-16 -39t-39 -16zM8 -217q-19 0 -32 13t-13 32t13 32t32 13q23 0 39 16t16 39v500q0 19 13 32t32 13t32 -13t13 -32v-500q0 -60 -42.5 -102.5t-102.5 -42.5z" />
<glyph unicode="k" horiz-adv-x="380" d="M238 269l121 -219q9 -16 3.5 -34.5t-21.5 -26.5q-16 -9 -34 -4t-27 21l-105 192l-30 -33v-137q0 -19 -13 -32t-32 -13t-32 13t-13 32v600q0 19 13 32t32 13t32 -13t13 -32v-328l141 158q13 14 31.5 15t32.5 -12q14 -12 15 -30.5t-12 -32.5z" />
<glyph unicode="l" horiz-adv-x="200" d="M115 -11q-29 16 -46 45.5t-17 62.5v531q0 19 13.5 32t31.5 13q19 0 32 -13t13 -32v-531q0 -20 18 -30q16 -10 21 -27.5t-5 -34.5q-9 -16 -27 -20.5t-34 4.5z" />
<glyph unicode="m" horiz-adv-x="592" d="M255 379h-110v-351q0 -19 -13.5 -32t-31.5 -13q-19 0 -32 13t-13 32v396q0 19 13 32t32 13h300q59 0 102 -42.5t43 -102.5v-296q0 -19 -13.5 -32t-31.5 -13q-19 0 -32 13t-13 32v296q0 22 -16.5 38.5t-38.5 16.5h-55v-351q0 -19 -13.5 -32t-31.5 -13q-19 0 -32 13t-13 32 v351z" />
<glyph unicode="n" horiz-adv-x="392" d="M100 -17q-19 0 -32 13t-13 32v396q0 19 13 32t32 13h100q60 0 102.5 -42.5t42.5 -102.5v-296q0 -19 -13.5 -32t-31.5 -13q-19 0 -32 13t-13 32v296q0 22 -16.5 38.5t-38.5 16.5h-55v-351q0 -19 -13.5 -32t-31.5 -13z" />
<glyph unicode="o" horiz-adv-x="376" d="M188 -17q-60 0 -102.5 42.5t-42.5 102.5v200q0 60 42.5 102.5t102.5 42.5t102.5 -42.5t42.5 -102.5v-200q0 -60 -42.5 -102.5t-102.5 -42.5zM188 383q-23 0 -39 -16t-16 -39v-200q0 -23 16 -39t39 -16q22 0 38.5 16.5t16.5 38.5v200q0 22 -16.5 38.5t-38.5 16.5z" />
<glyph unicode="p" horiz-adv-x="388" d="M100 -217q-19 0 -32 13t-13 32v596q0 19 13 32t32 13h100q60 0 102.5 -42.5t42.5 -102.5v-192q0 -60 -42.5 -102.5t-102.5 -42.5h-55v-159q0 -19 -13 -32t-32 -13zM255 132v192q0 22 -16.5 38.5t-38.5 16.5h-55v-302h55q22 0 38.5 16.5t16.5 38.5z" />
<glyph unicode="q" horiz-adv-x="388" d="M188 -13q-60 0 -102.5 42.5t-42.5 102.5v192q0 60 42.5 102.5t102.5 42.5h100q19 0 32 -13t13 -32v-596q0 -19 -13 -32t-32 -13t-32 13t-13 32v159h-55zM188 379q-22 0 -38.5 -16.5t-16.5 -38.5v-192q0 -22 16.5 -38.5t38.5 -16.5h55v302h-55z" />
<glyph unicode="r" horiz-adv-x="299" d="M100 -17q-19 0 -32 13t-13 32v396q0 19 13 32t32 13h100q37 0 72 -19q16 -10 21 -28t-4 -34q-10 -16 -27.5 -21t-34.5 5q-14 7 -27 7h-55v-351q0 -19 -13 -32t-32 -13z" />
<glyph unicode="s" horiz-adv-x="329" d="M191 86q18 15 16 39q-2 25 -20 37l-94 65q-52 38 -57 102q-3 66 44 109q49 44 112 33q63 -9 96 -66q9 -16 4 -34t-21 -27t-34 -4.5t-27 20.5q-11 19 -32 22q-20 4 -37 -11q-17 -14 -15 -36q2 -21 19 -34l93 -65q54 -39 59 -105q5 -67 -45 -112t-115 -34q-66 9 -99 68 q-9 16 -4.5 34t20.5 27t34.5 4.5t27.5 -20.5q11 -21 35 -24q22 -4 40 12z" />
<glyph unicode="t" horiz-adv-x="296" d="M56 379q-19 0 -32 13t-13 32t13 32t32 13h35v159q0 19 13 32t32 13t32 -13t13 -32v-159h55q19 0 32 -13t13 -32t-13 -32t-32 -13h-55v-251q0 -22 16.5 -38.5t38.5 -16.5q19 0 32 -13t13 -32t-13 -32t-32 -13q-60 0 -102.5 42.5t-42.5 102.5v251h-35z" />
<glyph unicode="u" horiz-adv-x="392" d="M192 -13q-60 0 -102.5 42.5t-42.5 102.5v296q0 19 13 32t32 13t32 -13t13 -32v-296q0 -22 16.5 -38.5t38.5 -16.5h55v351q0 19 13 32t32 13t32 -13t13 -32v-396q0 -19 -13 -32t-32 -13h-100z" />
<glyph unicode="v" horiz-adv-x="370" d="M142 15l-120 400q-5 18 3.5 34.5t26.5 21.5t34.5 -3.5t21.5 -26.5q42 -138 77 -256l77 256q5 18 21.5 26.5t34.5 3.5t26.5 -21.5t3.5 -34.5l-120 -400q-4 -14 -16 -23t-27 -9q-33 0 -43 32z" />
<glyph unicode="w" horiz-adv-x="538" d="M125 17l-100 400q-5 18 4.5 34.5t27.5 20.5q18 5 34.5 -5t20.5 -28q29 -115 56 -226l57 226q4 15 16 24.5t27 9.5q16 0 28 -9.5t16 -24.5q29 -115 56 -226l57 226q5 18 20.5 27.5t33.5 5.5t27.5 -20.5t5.5 -34.5l-100 -400q-4 -15 -16 -24.5t-28 -9.5q-15 0 -27 9.5 t-16 24.5q-29 115 -57 225l-56 -225q-4 -15 -16 -24.5t-28 -9.5q-15 0 -27 9.5t-16 24.5z" />
<glyph unicode="x" horiz-adv-x="360" d="M47 -11q-16 8 -21.5 26.5t3.5 34.5l100 182l-96 174q-9 17 -4 34.5t22 26.5q16 9 34 4t27 -21l68 -125l69 125q9 16 26.5 21t34.5 -4t22 -26.5t-4 -34.5l-96 -174l100 -182q9 -16 3.5 -34.5t-21.5 -26.5q-16 -9 -34 -4t-27 21l-73 132l-72 -132q-9 -16 -27 -21t-34 4z " />
<glyph unicode="y" horiz-adv-x="369" d="M50 -217q-19 0 -32 13t-13 32t13 32t32 13t33.5 11t19.5 28l34 116l-116 387q-5 18 4 34.5t27 21.5q17 5 33.5 -3.5t22.5 -26.5l76 -256l77 256q5 18 22 26.5t34 3.5q18 -5 27 -21.5t4 -34.5l-121 -400l-38 -129q-14 -47 -52 -74q-40 -29 -87 -29z" />
<glyph unicode="z" horiz-adv-x="344" d="M27 32q0 12 4 20q121 236 167 327h-126q-19 0 -32 13t-13 32t13 32t32 13h200q25 0 38 -22q7 -12 7 -23q0 -9 -5 -21q-121 -235 -167 -326h127q18 0 31.5 -13t13.5 -32t-13.5 -32t-31.5 -13h-200q-26 0 -39 21q-6 12 -6 24z" />
<glyph unicode="{" horiz-adv-x="256" d="M176 608v-200q0 -44 -28 -80q28 -36 28 -80v-220q0 -14 9 -23t23 -9q20 0 34 -14t14 -34t-14 -34t-34 -14q-53 0 -90.5 37.5t-37.5 90.5v220q0 14 -9 23t-23 9q-20 0 -34 14t-14 34t14 34t34 14q14 0 23 9t9 23v200q0 53 37.5 90.5t90.5 37.5q20 0 34 -14t14 -34t-14 -34 t-34 -14q-14 0 -23 -9t-9 -23z" />
<glyph unicode="|" horiz-adv-x="208" d="M109 876q20 0 34 -14t14 -34v-1000q0 -20 -14 -34t-34 -14t-34 14t-14 34v1000q0 20 14.5 34t33.5 14z" />
<glyph unicode="}" horiz-adv-x="256" d="M80 28v220q0 46 28 80q-28 34 -28 80v200q0 13 -9.5 22.5t-22.5 9.5q-20 0 -34 14t-14 34t14 34t34 14q53 0 90.5 -37.5t37.5 -90.5v-200q0 -14 9 -23t23 -9q20 0 34 -14t14 -34t-14 -34t-34 -14q-14 0 -23 -9t-9 -23v-220q0 -53 -37.5 -90.5t-90.5 -37.5q-20 0 -34 14 t-14 34t14 34t34 14q13 0 22.5 9.5t9.5 22.5z" />
<glyph unicode="~" d="M369 316q15 -11 18.5 -29.5t-6.5 -33.5q-32 -50 -90 -59q-57 -9 -104 25l-12 9q-16 11 -34 8q-19 -3 -30 -19t-29 -19.5t-34 6.5t-19.5 28.5t6.5 34.5q34 50 90 59q58 9 105 -25l12 -9q16 -13 34 -8q20 3 29 19q11 16 29.5 19.5t34.5 -6.5z" />
<glyph unicode="&#xa1;" horiz-adv-x="200" d="M100 476q24 0 41 -17t17 -41t-17 -41t-41 -17t-41 17t-17 41t17 41t41 17zM100 316q20 0 34 -14t14 -34v-400q0 -20 -14 -34t-34 -14t-34 14t-14 34v400q0 20 14 34t34 14z" />
<glyph unicode="&#xa2;" d="M326 91q14 -14 14 -34t-14 -34q-24 -24 -56 -35v-40q0 -20 -14 -34t-34 -14t-34 14t-14 34v40l-9 3q-42 17 -66.5 54.5t-24.5 82.5v200q0 45 24.5 82.5t66.5 54.5l9 3v40q0 20 14 34t34 14t34 -14t14 -34v-40q32 -11 56 -35q14 -14 14 -34.5t-14 -33.5q-14 -14 -34 -14 t-34 14q-13 15 -36 15h-1q-11 0 -19 -4q-32 -13 -32 -48v-200q0 -35 32 -48q8 -4 19 -4h1q22 0 36 15q14 14 34 14t34 -14z" />
<glyph unicode="&#xa3;" d="M348 80q20 0 34 -14t14 -34t-14 -34t-34 -14h-280q-17 0 -30.5 11.5t-16.5 28.5t5.5 32t25.5 21q22 7 35 26t13 42v135h-32q-20 0 -34 14t-14 34t14 34t34 14h32v132q0 50 30.5 90t79.5 53t95 -6.5t71 -62.5q10 -17 5 -36t-22 -30q-17 -10 -36 -4.5t-30 22.5 q-19 34 -58 24q-17 -4 -28 -18.5t-11 -31.5v-132h72q20 0 34 -14t14 -34t-14 -34t-34 -14h-72v-135q0 -36 -13 -65h165z" />
<glyph unicode="&#xa4;" horiz-adv-x="700" d="M660 403q5 -3 5 -10v-296q0 -7 -7 -11l-60 -30l-121 -61v0l-61 -30l-1 -1h-1q-1 -1 -3 -1v0q-3 0 -3 1h-1q-1 0 -2 1l-363 181q-7 4 -7 11v297q0 1 1 2v1q0 1 1 2v1l121 208q5 10 16 5l363 -181l1 -1h1zM173 646l-109 -187l342 -171l109 188zM399 -5v270l-339 169v-270z M483 25l98 49l-1 269l-97 -48v-270zM641 104v283l-106 76l-112 -194v-274l36 18v289q0 8 7 11l121 61q4 3 12 -1q5 -3 5 -10l1 -277zM147 210q-7 4 -7 11v123q0 6 6 11q5 3 12 0l146 -73q7 -4 7 -11v-123q0 -8 -6 -11q-4 -2 -6 -2t-6 2zM165 325v-97l122 -61v97z" />
<glyph unicode="&#xa5;" d="M160 28v92h-68q-20 0 -34 14t-14 34t14 34t34 14h68v64h-68q-20 0 -34 14t-14 34t14 34t34 14h38l-105 210q-9 18 -2.5 37t23.5 28q18 9 37 2.5t28 -24.5q56 -111 97 -194l97 194q9 18 28 24.5t36 -2.5q18 -9 24.5 -28t-2.5 -37l-105 -210h46q20 0 34 -14t14 -34t-14 -34 t-34 -14h-76v-64h76q20 0 34 -14t14 -34t-14 -34t-34 -14h-76v-92q0 -20 -14 -34t-34 -14t-34 14t-14 34z" />
<glyph unicode="&#xa6;" horiz-adv-x="208" d="M104 276q20 0 34 -14t14 -34v-400q0 -20 -14 -34t-34 -14t-34 14t-14 34v400q0 20 14 34t34 14zM104 876q20 0 34 -14t14 -34v-400q0 -20 -14 -34t-34 -14t-34 14t-14 34v400q0 20 14 34t34 14z" />
<glyph unicode="&#xa7;" d="M300 396q30 -24 43.5 -60t6.5 -73q-8 -40 -33 -68q23 -34 23 -74q2 -66 -47 -108q-50 -42 -114 -31q-63 11 -96 67q-10 17 -4.5 36t22.5 30q16 10 35.5 4.5t29.5 -22.5t29 -20q19 -5 35 9t14 33q0 19 -15 32l-112 89q-31 24 -44.5 59.5t-5.5 73.5q8 40 33 68 q-22 31 -24 74q0 67 48 107q51 43 114 32t96 -67q10 -17 4.5 -36t-22.5 -30q-17 -10 -36 -4.5t-29 22.5q-11 18 -30 20q-17 5 -34 -9q-15 -13 -15 -33q3 -21 16 -32zM176 315l70 -55q7 8 10 20q5 25 -15 41l-70 55q-7 -8 -10 -20q-5 -25 15 -41z" />
<glyph unicode="&#xa8;" horiz-adv-x="500" d="M275 578q0 22 16.5 38.5t38.5 16.5q23 0 39 -16t16 -39t-16 -39t-39 -16q-22 0 -38.5 16.5t-16.5 38.5zM170 633q23 0 39 -16t16 -39t-16 -39t-39 -16q-22 0 -38.5 16.5t-16.5 38.5t16.5 38.5t38.5 16.5z" />
<glyph unicode="&#xa9;" horiz-adv-x="718" d="M351 421q-26 -7 -26 -33v-140q0 -26 26 -33t38 16q10 16 28 21t34 -5q17 -9 22 -27t-5 -35q-21 -37 -60.5 -53t-80.5 -5q-41 10 -67 44t-26 77v140q0 43 26 76.5t67 44.5t80.5 -5t60.5 -53q10 -17 5 -35t-22 -27q-16 -10 -34 -5t-28 21q-12 23 -38 16zM695 318 q0 -139 -98 -237q-99 -99 -238 -99q-138 0 -237 99q-98 98 -98 237t98 237t237 98q140 0 238 -98t98 -237zM359 73q101 0 173 72q72 70 72 173t-72 173q-71 71 -173 71q-101 0 -172 -71q-72 -70 -72 -173t72 -173q72 -72 172 -72z" />
<glyph unicode="&#xaa;" horiz-adv-x="305" d="M182 647q37 -10 60.5 -40.5t23.5 -68.5v-210q0 -18 -12.5 -30.5t-30.5 -12.5h-70q-47 0 -80 33.5t-33 79.5t33 79.5t80 33.5h27v27q0 21 -20 26t-30 -13q-9 -15 -26.5 -19.5t-32.5 3.5q-16 9 -20.5 26.5t4.5 33.5q19 33 54.5 47.5t72.5 4.5zM153 371h27v54h-27 q-11 0 -19 -8t-8 -19t8 -19t19 -8z" />
<glyph unicode="&#xab;" horiz-adv-x="419" d="M372 408q0 -12 -6 -23q-35 -64 -51 -93l55 -101q6 -11 6 -23q0 -28 -24 -42q-18 -10 -37 -4t-29 23l-68 123q-13 24 0 47l64 116q10 17 29 23t37 -4q24 -14 24 -42zM106 145l-68 123q-13 24 0 47l64 116q10 17 29 23t37 -4q24 -14 24 -42q0 -12 -6 -23q-35 -64 -51 -93 l55 -101q6 -11 6 -23q0 -28 -24 -42q-18 -10 -37 -4t-29 23z" />
<glyph unicode="&#xac;" d="M328 336q20 0 34 -14t14 -34v-120q0 -20 -14 -34t-34 -14t-34 14t-14 34v72h-192q-20 0 -34 14t-14 34t14 34t34 14h240z" />
<glyph unicode="&#xad;" d="M88 240q-20 0 -34 14t-14 34t14 34t34 14h240q20 0 34 -14t14 -34t-14 -34t-34 -14h-240z" />
<glyph unicode="&#xae;" horiz-adv-x="718" d="M495 384q0 -66 -57 -105l51 -88q9 -16 4 -34.5t-21 -28.5q-17 -9 -35 -4t-27 21l-65 113h-10v-90q0 -19 -13.5 -32.5t-32.5 -13.5t-32 13.5t-13 32.5v296q0 19 13 32t32 13h80q52 0 89 -36.5t37 -88.5zM369 418h-34v-69h34q14 0 24.5 10.5t10.5 24.5t-10.5 24t-24.5 10z M359 653q140 0 238 -98t98 -237t-98 -237q-99 -99 -238 -99q-138 0 -237 99q-98 98 -98 237t98 237t237 98zM532 145q72 70 72 173t-72 173q-71 71 -173 71q-101 0 -172 -71q-72 -70 -72 -173t72 -173q72 -72 172 -72q101 0 173 72z" />
<glyph unicode="&#xaf;" horiz-adv-x="500" d="M500 796q20 0 34 -14t14 -34t-14 -34t-34 -14h-500q-20 0 -34 14t-14 34t14 34t34 14h500z" />
<glyph unicode="&#xb0;" horiz-adv-x="313" d="M290 518q0 -55 -39 -94t-94 -39t-94 38.5t-39 94.5q0 55 39 94t94 39t94 -39t39 -94zM110 518q0 -20 14 -33.5t33 -13.5t33 13.5t14 33.5t-14 33.5t-33 13.5t-33 -13.5t-14 -33.5z" />
<glyph unicode="&#xb1;" d="M328 80q20 0 34 -14t14 -34t-14 -34t-34 -14h-240q-20 0 -34 14t-14 34t14 34t34 14h240zM328 336q20 0 34 -14t14 -34t-14 -34t-34 -14h-72v-72q0 -20 -14 -34t-34 -14t-34 14t-14 34v72h-72q-20 0 -34 14t-14 34t14 34t34 14h72v72q0 20 14 34t34 14t34 -14t14 -34v-72 h72z" />
<glyph unicode="&#xb2;" horiz-adv-x="297" d="M240 477q-2 0 -78 -122h52q18 0 30.5 -12.5t12.5 -30.5t-12.5 -30.5t-30.5 -12.5h-131q-25 0 -38 22q-12 24 2 44l120 189q6 11 3 20q-3 11 -12 17t-21 3t-16 -13q-9 -15 -26.5 -19.5t-32.5 3.5q-16 9 -20.5 26.5t4.5 33.5q23 41 70 53q47 11 87 -13q40 -25 51 -71 q11 -47 -14 -87z" />
<glyph unicode="&#xb3;" horiz-adv-x="296" d="M241 481q-1 -2 -4 -6.5t-5 -6.5q24 -30 24 -70v-20q0 -38 -23.5 -68.5t-60.5 -40.5t-72.5 4.5t-54.5 47.5q-9 16 -4.5 33t20.5 26q15 9 32.5 4.5t26.5 -19.5q10 -18 30 -13t20 26v20q0 11 -8 19t-19 8q-18 0 -30.5 12.5t-12.5 30.5t12.5 30.5t30.5 12.5q15 0 23 14 q8 13 0 26q-8 14 -23 14t-23 -14q-9 -15 -26.5 -19.5t-32.5 3.5q-16 9 -20.5 26.5t4.5 33.5q32 56 98 56t98 -56q15 -26 15 -57t-15 -57z" />
<glyph unicode="&#xb4;" horiz-adv-x="500" d="M272 660q13 12 30.5 11t29.5 -14t11 -31t-14 -30l-100 -90q-13 -12 -31 -11t-29 14q-12 13 -11 31t14 30z" />
<glyph unicode="&#xb5;" horiz-adv-x="400" d="M300 473q19 0 32 -13t13 -32v-400q0 -19 -13 -32t-32 -13q-21 0 -34 16q-32 -16 -66 -16q-28 0 -55 11v-166q0 -19 -13 -32t-32 -13t-32 13t-13 32v600q0 19 13 32t32 13t32 -13t13 -32v-300q0 -22 16.5 -38.5t38.5 -16.5t38.5 16.5t16.5 38.5v300q0 19 13 32t32 13z" />
<glyph unicode="&#xb6;" horiz-adv-x="480" d="M434 649q19 0 32.5 -13t13.5 -32t-13.5 -32.5t-32.5 -13.5h-24v-610q0 -19 -13.5 -32.5t-32.5 -13.5t-32 13.5t-13 32.5v610h-49v-610q0 -19 -13.5 -32.5t-32.5 -13.5t-32 13.5t-13 32.5v371q-67 1 -113.5 49.5t-46.5 115.5q0 68 48.5 116.5t116.5 48.5h250zM110 484 q0 -29 20 -50.5t49 -23.5v148q-29 -2 -49 -23.5t-20 -50.5z" />
<glyph unicode="&#xb7;" horiz-adv-x="192" d="M96 446q24 0 41 -17t17 -41t-17 -41t-41 -17t-41 17t-17 41t17 41t41 17z" />
<glyph unicode="&#xb8;" horiz-adv-x="500" d="M204 28q0 20 14 34t34 14t34 -14t14 -34v-61q0 -74 -64 -111q-17 -10 -36 -5t-29 22t-5 36.5t22 29.5q16 10 16 28v61z" />
<glyph unicode="&#xb9;" horiz-adv-x="234" d="M161 648q26 -11 26 -40v-300q0 -18 -12.5 -30.5t-30.5 -12.5t-30.5 12.5t-12.5 30.5v196l-15 -15q-13 -13 -31 -13t-30 13q-13 12 -13 30t13 31l88 89q22 20 48 9z" />
<glyph unicode="&#xba;" horiz-adv-x="305" d="M153 651q47 0 80 -33.5t33 -79.5v-140q0 -46 -33 -79.5t-80 -33.5t-80 33.5t-33 79.5v140q0 46 33 79.5t80 33.5zM153 371q11 0 19 8t8 19v140q0 11 -8 19t-19 8t-19 -8t-8 -19v-140q0 -11 8 -19t19 -8z" />
<glyph unicode="&#xbb;" horiz-adv-x="419" d="M223 168q0 12 6 23q39 70 56 101l-52 93q-6 11 -6 23q0 28 25 42q17 10 36.5 4t28.5 -23l64 -116q13 -23 0 -47l-68 -123q-9 -17 -28.5 -23t-36.5 4q-25 14 -25 42zM68 126q-25 14 -25 42q0 12 6 23q39 70 56 101l-52 93q-6 11 -6 23q0 28 25 42q17 10 36.5 4t28.5 -23 l64 -116q13 -23 0 -47l-68 -123q-9 -17 -28.5 -23t-36.5 4z" />
<glyph unicode="&#xbc;" horiz-adv-x="598" d="M101 308v196l-15 -15q-13 -13 -31 -13t-30 13q-13 12 -13 30t13 31l88 89q22 20 48 9t26 -40v-300q0 -18 -12.5 -30.5t-30.5 -12.5t-30.5 12.5t-12.5 30.5zM536 151q18 0 30.5 -12.5t12.5 -30.5t-12.5 -30.5t-30.5 -12.5h-9v-37q0 -18 -12.5 -30.5t-30.5 -12.5 t-30.5 12.5t-12.5 30.5v37h-86q-23 0 -36 19q-13 20 -4 40l89 220q7 17 23.5 24t32.5 0q27 -11 27 -40q0 -8 -3 -16q-39 -97 -65 -161h22v17q0 18 12.5 30.5t30.5 12.5t30.5 -12.5t12.5 -30.5v-17h9zM445 651q18 -8 24.5 -27t-2.5 -37l-280 -580q-8 -18 -27 -24.5t-37 2.5 q-18 8 -24.5 27t2.5 37l280 580q8 18 27 24.5t37 -2.5z" />
<glyph unicode="&#xbd;" horiz-adv-x="596" d="M101 308v196l-15 -15q-13 -13 -31 -13t-30 13q-13 12 -13 30t13 31l88 89q22 20 48 9t26 -40v-300q0 -18 -12.5 -30.5t-30.5 -12.5t-30.5 12.5t-12.5 30.5zM560 197q-2 0 -78 -122h52q18 0 30.5 -12.5t12.5 -30.5t-12.5 -30.5t-30.5 -12.5h-131q-25 0 -38 22q-12 24 2 44 l120 189q6 11 3 20q-3 11 -12 17t-21 3t-16 -13q-9 -15 -26.5 -19.5t-32.5 3.5q-16 9 -20.5 26.5t4.5 33.5q23 41 70 53q47 11 87 -13q40 -25 51 -71q11 -47 -14 -87zM445 651q18 -8 24.5 -27t-2.5 -37l-280 -580q-8 -18 -27 -24.5t-37 2.5q-18 8 -24.5 27t2.5 37l280 580 q8 18 27 24.5t37 -2.5z" />
<glyph unicode="&#xbe;" horiz-adv-x="628" d="M237 378q0 -38 -23.5 -68.5t-60.5 -40.5t-72.5 4.5t-54.5 47.5q-9 16 -4.5 33t20.5 26q15 9 32.5 4.5t26.5 -19.5q10 -18 30 -13t20 26v20q0 11 -8 19t-19 8q-18 0 -30.5 12.5t-12.5 30.5t12.5 30.5t30.5 12.5q15 0 23 14q8 13 0 26q-8 14 -23 14t-23 -14 q-9 -15 -26.5 -19.5t-32.5 3.5q-16 9 -20.5 26.5t4.5 33.5q32 56 98 56t98 -56q15 -26 15 -57t-15 -57q-2 -2 -5 -6.5t-4 -6.5q24 -30 24 -70v-20zM566 151q18 0 30.5 -12.5t12.5 -30.5t-12.5 -30.5t-30.5 -12.5h-9v-37q0 -18 -12.5 -30.5t-30.5 -12.5t-30.5 12.5 t-12.5 30.5v37h-86q-23 0 -36 19q-13 20 -4 40l89 220q7 17 23.5 24t32.5 0q27 -11 27 -40q0 -8 -3 -16q-39 -97 -65 -161h22v17q0 18 12.5 30.5t30.5 12.5t30.5 -12.5t12.5 -30.5v-17h9zM475 651q18 -8 24.5 -27t-2.5 -37l-280 -580q-8 -18 -27 -24.5t-37 2.5 q-18 8 -24.5 27t2.5 37l280 580q8 18 27 24.5t37 -2.5z" />
<glyph unicode="&#xbf;" horiz-adv-x="357" d="M134 418q0 24 17 41t41 17t41 -17t17 -41t-17 -41t-41 -17t-41 17t-17 41zM90 -166q-60 48 -65 122q-6 76 48 130v0l51 51q20 22 20 51v80q0 20 14 34t34 14t34 -14t14 -34v-80q0 -68 -48 -118l-51 -51q-23 -23 -21 -56q3 -34 29 -52q25 -20 57 -14q31 6 49 35 q10 17 29 22.5t36 -4.5q17 -11 22.5 -30t-4.5 -36q-37 -65 -113 -81q-74 -14 -135 31z" />
<glyph unicode="&#xc0;" horiz-adv-x="432" d="M132 858q13 14 31.5 15.5t32.5 -11.5l100 -90q14 -13 15.5 -31.5t-11.5 -32.5t-32 -15.5t-33 11.5l-100 90q-14 13 -15 31.5t12 32.5zM262 621l160 -580q5 -19 -4.5 -36.5t-28.5 -22.5t-36.5 4.5t-22.5 28.5q-12 43 -29 105h-170l-29 -105q-5 -19 -22.5 -28.5t-36.5 -4.5 t-28.5 22.5t-4.5 36.5l160 580q4 16 16.5 25.5t29.5 9.5t29.5 -9.5t16.5 -25.5zM158 216h116q-6 23 -27 98.5t-31 112.5q-10 -37 -31 -112.5t-27 -98.5z" />
<glyph unicode="&#xc1;" horiz-adv-x="432" d="M236 862q14 13 32.5 11.5t31.5 -15.5t11.5 -32.5t-15.5 -31.5l-100 -90q-14 -13 -32.5 -11.5t-31.5 15.5t-11.5 32.5t15.5 31.5zM262 621l160 -580q5 -19 -4.5 -36.5t-28.5 -22.5t-36.5 4.5t-22.5 28.5q-12 43 -29 105h-170l-29 -105q-5 -19 -22.5 -28.5t-36.5 -4.5 t-28.5 22.5t-4.5 36.5l160 580q4 16 16.5 25.5t29.5 9.5t29.5 -9.5t16.5 -25.5zM158 216h116q-6 23 -27 98.5t-31 112.5q-10 -37 -31 -112.5t-27 -98.5z" />
<glyph unicode="&#xc2;" horiz-adv-x="432" d="M190 842q11 9 26 9t27 -9l90 -70q14 -11 16 -29t-9 -32t-28.5 -16t-31.5 9q-37 29 -64 49l-63 -49q-14 -11 -32 -9t-29 16t-8.5 32t16.5 29zM262 621l160 -580q5 -19 -4.5 -36.5t-28.5 -22.5t-36.5 4.5t-22.5 28.5q-12 43 -29 105h-170l-29 -105q-5 -19 -22.5 -28.5 t-36.5 -4.5t-28.5 22.5t-4.5 36.5l160 580q4 16 16.5 25.5t29.5 9.5t29.5 -9.5t16.5 -25.5zM158 216h116q-6 23 -27 98.5t-31 112.5q-10 -37 -31 -112.5t-27 -98.5z" />
<glyph unicode="&#xc3;" horiz-adv-x="432" d="M90 790q25 37 69 45t79 -19l8 -6q5 -4 13 -4q8 3 11 8q10 15 27.5 18.5t32.5 -6.5t18.5 -27.5t-6.5 -32.5q-23 -37 -68 -45q-44 -8 -80 19l-8 6q-6 5 -13 3q-5 0 -11 -7q-10 -15 -27.5 -18.5t-32.5 6.5q-14 10 -18 27.5t6 32.5zM262 621l160 -580q5 -19 -4.5 -36.5 t-28.5 -22.5t-36.5 4.5t-22.5 28.5q-12 43 -29 105h-170l-29 -105q-5 -19 -22.5 -28.5t-36.5 -4.5t-28.5 22.5t-4.5 36.5l160 580q4 16 16.5 25.5t29.5 9.5t29.5 -9.5t16.5 -25.5zM158 216h116q-6 23 -27 98.5t-31 112.5q-10 -37 -31 -112.5t-27 -98.5z" />
<glyph unicode="&#xc4;" horiz-adv-x="432" d="M296 720q-24 0 -41 17t-17 41t17 41t41 17t41 -17t17 -41t-17 -41t-41 -17zM136 836q24 0 41 -17t17 -41t-17 -41t-41 -17t-41 17t-17 41t17 41t41 17zM262 621l160 -580q5 -19 -4.5 -36.5t-28.5 -22.5t-36.5 4.5t-22.5 28.5q-12 43 -29 105h-170l-29 -105 q-5 -19 -22.5 -28.5t-36.5 -4.5t-28.5 22.5t-4.5 36.5l160 580q4 16 16.5 25.5t29.5 9.5t29.5 -9.5t16.5 -25.5zM158 216h116q-6 23 -27 98.5t-31 112.5q-10 -37 -31 -112.5t-27 -98.5z" />
<glyph unicode="&#xc5;" horiz-adv-x="432" d="M315 788q0 -41 -29 -70t-70 -29q-40 0 -69 29t-29 70q0 40 29 69t69 29q41 0 70 -28.5t29 -69.5zM195 788q0 -9 6.5 -15.5t14.5 -6.5q9 0 15.5 6.5t6.5 15.5t-6.5 15t-15.5 6q-8 0 -14.5 -6t-6.5 -15zM262 621l160 -580q5 -19 -4.5 -36.5t-28.5 -22.5t-36.5 4.5 t-22.5 28.5q-12 43 -29 105h-170l-29 -105q-5 -19 -22.5 -28.5t-36.5 -4.5t-28.5 22.5t-4.5 36.5l160 580q4 16 16.5 25.5t29.5 9.5t29.5 -9.5t16.5 -25.5zM158 216h116q-6 23 -27 98.5t-31 112.5q-10 -37 -31 -112.5t-27 -98.5z" />
<glyph unicode="&#xc6;" horiz-adv-x="617" d="M548 556h-152v-180h132q20 0 34 -14t14 -34t-14 -34t-34 -14h-132v-200h152q20 0 34 -14t14 -34t-14 -34t-34 -14h-200q-20 0 -34 14t-14 34v88h-158l-50 -112q-8 -18 -26.5 -25t-36.5 1t-25 26.5t1 37.5l258 576q12 28 44 28h241q20 0 34 -14t14 -34t-14 -34t-34 -14z M185 216h115v257q-15 -34 -115 -257z" />
<glyph unicode="&#xc7;" horiz-adv-x="394" d="M160 -13q-53 16 -86.5 60.5t-33.5 100.5v340q0 57 34.5 102.5t89.5 59.5q55 15 108 -7t81 -71l10 -17q10 -17 4.5 -36.5t-22.5 -29.5t-36 -4.5t-29 22.5l-10 17q-12 21 -35 30.5t-46 2.5q-24 -6 -38.5 -25.5t-14.5 -43.5v-340q0 -25 14.5 -44t38.5 -26q23 -6 46 3.5 t35 30.5l10 17q10 17 29 22.5t36 -4.5t22.5 -29.5t-4.5 -36.5l-10 -17q-34 -58 -97 -77v-22q0 -34 -17.5 -64t-47.5 -47q-16 -10 -35.5 -5t-29.5 22t-4.5 36.5t22.5 29.5q16 11 16 28v22z" />
<glyph unicode="&#xc8;" horiz-adv-x="368" d="M300 556h-152v-180h132q20 0 34 -14t14 -34t-14 -34t-34 -14h-132v-200h152q20 0 34 -14t14 -34t-14 -34t-34 -14h-200q-20 0 -34 14t-14 34v572q0 20 14 34t34 14h200q20 0 34 -14t14 -34t-14 -34t-34 -14zM119 794q-14 13 -15 32t12 32q13 14 31.5 15.5t32.5 -11.5 l100 -90q14 -13 15 -32t-12 -32q-12 -14 -31 -15.5t-33 11.5z" />
<glyph unicode="&#xc9;" horiz-adv-x="368" d="M300 556h-152v-180h132q20 0 34 -14t14 -34t-14 -34t-34 -14h-132v-200h152q20 0 34 -14t14 -34t-14 -34t-34 -14h-200q-20 0 -34 14t-14 34v572q0 20 14 34t34 14h200q20 0 34 -14t14 -34t-14 -34t-34 -14zM119 772l100 90q14 13 33 11.5t31 -15.5q13 -13 12 -32 t-15 -32l-100 -90q-14 -13 -32.5 -11.5t-31.5 15.5t-12 32.5t15 31.5z" />
<glyph unicode="&#xca;" horiz-adv-x="368" d="M348 32q0 -20 -14 -34t-34 -14h-200q-20 0 -34 14t-14 34v572q0 20 14 34t34 14h200q20 0 34 -14t14 -34t-14 -34t-34 -14h-152v-180h132q20 0 34 -14t14 -34t-14 -34t-34 -14h-132v-200h152q20 0 34 -14t14 -34zM76 711q-11 14 -9 32t16 29l90 70q12 9 27 9t26 -9 l90 -70q14 -11 16.5 -29t-8.5 -32t-29 -16t-32 9q-37 29 -63 49l-64 -49q-14 -11 -31.5 -9t-28.5 16z" />
<glyph unicode="&#xcb;" horiz-adv-x="368" d="M300 556h-152v-180h132q20 0 34 -14t14 -34t-14 -34t-34 -14h-132v-200h152q20 0 34 -14t14 -34t-14 -34t-34 -14h-200q-20 0 -34 14t-14 34v572q0 20 14 34t34 14h200q20 0 34 -14t14 -34t-14 -34t-34 -14zM222 778q0 24 17 41t41 17t41 -17t17 -41t-17 -41t-41 -17 t-41 17t-17 41zM62 778q0 24 17 41t41 17t41 -17t17 -41t-17 -41t-41 -17t-41 17t-17 41z" />
<glyph unicode="&#xcc;" horiz-adv-x="200" d="M184 708q-13 -14 -31.5 -15.5t-32.5 11.5l-100 90q-14 13 -15.5 31.5t11.5 32.5t31.5 15.5t32.5 -11.5l100 -90q14 -13 15.5 -31.5t-11.5 -32.5zM148 608v-580q0 -20 -14 -34t-34 -14t-34 14t-14 34v580q0 20 14 34t34 14t34 -14t14 -34z" />
<glyph unicode="&#xcd;" horiz-adv-x="200" d="M52 608q0 20 14 34t34 14t34 -14t14 -34v-580q0 -20 -14 -34t-34 -14t-34 14t-14 34v580zM16 708q-13 14 -11.5 32.5t15.5 31.5l100 90q14 13 32.5 11.5t31.5 -15.5t11.5 -32.5t-15.5 -31.5l-100 -90q-14 -13 -32.5 -11.5t-31.5 15.5z" />
<glyph unicode="&#xce;" horiz-adv-x="200" d="M-24 711q-11 14 -9 32t16 29l90 70q27 20 54 0l90 -70q14 -11 16 -29t-9 -32t-29 -16t-32 9q-37 29 -63 49l-63 -49q-14 -11 -32 -9t-29 16zM100 -20q-20 0 -34 14t-14 34v580q0 20 14 34t34 14t34 -14t14 -34v-580q0 -20 -14 -34t-34 -14z" />
<glyph unicode="&#xcf;" horiz-adv-x="200" d="M122 778q0 24 17 41t41 17t41 -17t17 -41t-17 -41t-41 -17t-41 17t-17 41zM20 836q24 0 41 -17t17 -41t-17 -41t-41 -17t-41 17t-17 41t17 41t41 17zM52 608q0 20 14 34t34 14t34 -14t14 -34v-580q0 -20 -14 -34t-34 -14t-34 14t-14 34v580z" />
<glyph unicode="&#xd0;" horiz-adv-x="441" d="M113 652h120q70 0 119 -49t49 -119v-332q0 -70 -49 -119t-119 -49h-120q-20 0 -34 14t-14 34v250h-32q-19 0 -32 13.5t-13 32.5t13 32t32 13h32v231q0 20 14.5 34t33.5 14zM305 484q0 30 -21 51t-51 21h-72v-183h52q19 0 32.5 -13t13.5 -32t-13.5 -32.5t-32.5 -13.5h-52 v-202h72q30 0 51 21t21 51v332z" />
<glyph unicode="&#xd1;" horiz-adv-x="480" d="M391 -19q-37 -8 -54 26q-106 219 -189 391v-370q0 -20 -14 -34t-34 -14t-34 14t-14 34v580q0 16 10.5 29.5t26.5 17.5q17 4 32 -3.5t22 -22.5q106 -219 189 -391v370q0 20 14 34t34 14t34 -14t14 -34v-580q0 -17 -10.5 -30t-26.5 -17zM186 742q-10 -15 -27.5 -18.5 t-32.5 6.5t-18.5 27.5t6.5 32.5q25 37 69 45q43 8 79 -19l8 -6q5 -4 13 -4q8 3 11 8q10 15 27.5 18.5t32.5 -6.5t18.5 -27.5t-6.5 -32.5q-23 -37 -68 -45q-44 -8 -80 19l-8 6q-6 5 -13 3q-5 0 -11 -7z" />
<glyph unicode="&#xd2;" d="M376 488v-340q0 -70 -49 -119t-119 -49q-69 0 -118.5 49t-49.5 119v340q0 70 49.5 119t118.5 49q70 0 119 -49t49 -119zM208 76q30 0 51 21t21 51v340q0 30 -21 51t-51 21q-29 0 -50.5 -21t-21.5 -51v-340q0 -30 21.5 -51t50.5 -21zM124 858q13 14 32 15.5t33 -11.5 l100 -90q14 -13 15 -31.5t-12 -32.5t-31.5 -15.5t-32.5 11.5l-100 90q-14 13 -15 32t11 32z" />
<glyph unicode="&#xd3;" d="M208 -20q-69 0 -118.5 49t-49.5 119v340q0 70 49.5 119t118.5 49q70 0 119 -49t49 -119v-340q0 -70 -49 -119t-119 -49zM208 560q-29 0 -50.5 -21t-21.5 -51v-340q0 -30 21.5 -51t50.5 -21q30 0 51 21t21 51v340q0 30 -21 51t-51 21zM125 708q-13 13 -12 32t15 32l100 90 q14 13 32.5 11.5t31.5 -15.5q13 -13 12 -32t-15 -32l-100 -90q-14 -13 -33 -11.5t-31 15.5z" />
<glyph unicode="&#xd4;" d="M376 148q0 -70 -49 -119t-119 -49q-69 0 -118.5 49t-49.5 119v340q0 70 49.5 119t118.5 49q70 0 119 -49t49 -119v-340zM136 148q0 -30 21.5 -51t50.5 -21q30 0 51 21t21 51v340q0 30 -21 51t-51 21q-29 0 -50.5 -21t-21.5 -51v-340zM325 772q14 -11 16.5 -29t-8.5 -32 t-29 -16t-32 9q-37 29 -64 49l-63 -49q-14 -11 -32 -9t-29 16t-8.5 32t16.5 29l90 70q26 20 53 0z" />
<glyph unicode="&#xd5;" d="M376 148q0 -70 -49.5 -119t-118.5 -49q-70 0 -119 49t-49 119v340q0 70 49 119t119 49q69 0 118.5 -49t49.5 -119v-340zM208 76q29 0 50.5 21t21.5 51v340q0 30 -21.5 51t-50.5 21q-30 0 -51 -21t-21 -51v-340q0 -30 21 -51t51 -21zM150 835q44 8 80 -19l8 -6q5 -4 12 -4 q9 3 12 8q10 15 27.5 18.5t32.5 -6.5q14 -10 18 -27.5t-6 -32.5q-25 -37 -69 -45t-79 19l-8 6q-7 6 -13 3q-7 0 -11 -7q-10 -15 -27.5 -18.5t-32.5 6.5t-18.5 27.5t6.5 32.5q23 37 68 45z" />
<glyph unicode="&#xd6;" d="M376 148q0 -70 -49.5 -119t-118.5 -49q-70 0 -119 49t-49 119v340q0 70 49 119t119 49q69 0 118.5 -49t49.5 -119v-340zM208 76q29 0 50.5 21t21.5 51v340q0 30 -21.5 51t-50.5 21q-30 0 -51 -21t-21 -51v-340q0 -30 21 -51t51 -21zM230 778q0 24 17 41t41 17t41 -17 t17 -41t-17 -41t-41 -17t-41 17t-17 41zM70 778q0 24 17 41t41 17t41 -17t17 -41t-17 -41t-41 -17t-41 17t-17 41z" />
<glyph unicode="&#xd7;" d="M342 222q14 -14 14 -34t-14 -34t-34 -14t-34 14l-66 66l-66 -66q-14 -14 -34 -14t-34 14t-14 34t14 34l66 66l-66 66q-14 14 -14 34t14 34t34 14t34 -14l66 -66l66 66q14 14 34 14t34 -14t14 -34t-14 -34l-66 -66z" />
<glyph unicode="&#xd8;" horiz-adv-x="426" d="M415 688q16 -9 21.5 -27.5t-3.5 -34.5l-56 -102q4 -24 4 -36v-340q0 -70 -49.5 -119t-118.5 -49q-64 0 -110 41l-30 -55q-9 -16 -27.5 -21.5t-34.5 3.5t-21.5 27.5t3.5 34.5l56 102q-4 16 -4 36v340q0 70 49 119t119 49q61 0 110 -41l30 55q9 17 27 22t35 -4zM213 560 q-30 0 -51 -21t-21 -51v-207l133 245q-22 34 -61 34zM213 76q29 0 50.5 21t21.5 51v207l-134 -245q22 -34 62 -34z" />
<glyph unicode="&#xd9;" horiz-adv-x="424" d="M212 -20q-70 0 -119 49t-49 119v460q0 20 14 34t34 14t34 -14t14 -34v-460q0 -30 21 -51t51 -21t51 21t21 51v460q0 20 14 34t34 14t34 -14t14 -34v-460q0 -70 -49 -119t-119 -49zM128 858q13 14 31.5 15.5t32.5 -11.5l100 -90q14 -13 15.5 -31.5t-11.5 -32.5t-32 -15.5 t-33 11.5l-100 90q-14 13 -15 31.5t12 32.5z" />
<glyph unicode="&#xda;" horiz-adv-x="424" d="M380 148q0 -70 -49 -119t-119 -49t-119 49t-49 119v460q0 20 14 34t34 14t34 -14t14 -34v-460q0 -30 21 -51t51 -21t51 21t21 51v460q0 20 14 34t34 14t34 -14t14 -34v-460zM192 704q-14 -13 -32.5 -11.5t-31.5 15.5t-11.5 32.5t15.5 31.5l100 90q14 13 32.5 11.5 t31.5 -15.5t11.5 -32.5t-15.5 -31.5z" />
<glyph unicode="&#xdb;" horiz-adv-x="424" d="M212 -20q-69 0 -118.5 49t-49.5 119v460q0 20 14 34t34 14t34 -14t14 -34v-460q0 -30 21.5 -51t50.5 -21q30 0 51 21t21 51v460q0 20 14 34t34 14t34 -14t14 -34v-460q0 -70 -49 -119t-119 -49zM88 711q-11 14 -8.5 32t16.5 29l90 70q11 9 26 9t27 -9l90 -70 q14 -11 16 -29t-9 -32t-28.5 -16t-31.5 9q-37 29 -64 49l-63 -49q-14 -11 -32 -9t-29 16z" />
<glyph unicode="&#xdc;" horiz-adv-x="424" d="M212 -20q-69 0 -118.5 49t-49.5 119v460q0 20 14 34t34 14t34 -14t14 -34v-460q0 -30 21.5 -51t50.5 -21q30 0 51 21t21 51v460q0 20 14 34t34 14t34 -14t14 -34v-460q0 -70 -49 -119t-119 -49zM234 778q0 24 17 41t41 17t41 -17t17 -41t-17 -41t-41 -17t-41 17t-17 41z M132 720q-24 0 -41 17t-17 41t17 41t41 17t41 -17t17 -41t-17 -41t-41 -17z" />
<glyph unicode="&#xdd;" horiz-adv-x="402" d="M298 629q9 18 28 24.5t37 -2.5q17 -9 23.5 -28t-2.5 -37l-135 -269v-289q0 -20 -14 -34t-34 -14t-34 14t-14 34v289l-135 269q-9 18 -2.5 37t24.5 28q17 9 36 2.5t28 -24.5q56 -111 97 -194zM182 704q-14 -13 -33 -11.5t-32 15.5q-12 13 -11 32t15 32l100 90 q14 13 32.5 11.5t31.5 -15.5t12 -32.5t-15 -31.5z" />
<glyph unicode="&#xde;" horiz-adv-x="400" d="M220 526q69 0 118.5 -49t49.5 -119v-60q0 -70 -49.5 -119t-118.5 -49h-72v-102q0 -20 -14 -34t-34 -14t-34 14t-14 34v576q0 20 14 34t34 14t34 -14t14 -34v-78h72zM220 226q29 0 50.5 21t21.5 51v60q0 30 -21.5 51t-50.5 21h-72v-204h72z" />
<glyph unicode="&#xdf;" horiz-adv-x="428" d="M385 148q0 -68 -48.5 -116.5t-116.5 -48.5q-19 0 -32 13t-13 32t13 32t32 13q31 0 53 22t22 53v160q0 31 -22 53t-53 22q-16 0 -28.5 10t-15.5 26t4.5 30t22.5 20l18 8q31 13 34 46q3 31 -25 51q-27 18 -56 2q-29 -14 -29 -48v-500q0 -19 -13 -32t-32 -13t-32 13t-13 32 v500q0 41 20.5 75t55.5 53q77 40 149 -7q65 -43 65 -121q0 -9 -1 -14q-3 -41 -28 -72q69 -49 69 -134v-160z" />
<glyph unicode="&#xe0;" horiz-adv-x="352" d="M160 -13q-60 0 -102.5 42.5t-42.5 102.5t42.5 102.5t102.5 42.5h55v53q0 36 -33 49q-34 14 -58 -12q-13 -13 -31.5 -13t-31.5 13t-13 32t13 32q31 31 73 39.5t82 -8.5q40 -16 64.5 -52t24.5 -80v-298q0 -19 -13 -32t-32 -13h-100zM160 187q-23 0 -39 -16t-16 -39t16 -39 t39 -16h55v110h-55zM158 660l100 -90q13 -12 14 -30t-11 -31q-11 -13 -28.5 -14t-31.5 11l-100 90q-13 12 -14 29.5t11 31.5q12 13 29.5 14t30.5 -11z" />
<glyph unicode="&#xe1;" horiz-adv-x="352" d="M160 -13q-60 0 -102.5 42.5t-42.5 102.5t42.5 102.5t102.5 42.5h55v53q0 36 -33 49q-34 14 -58 -12q-13 -13 -31.5 -13t-31.5 13t-13 32t13 32q31 31 73 39.5t82 -8.5q40 -16 64.5 -52t24.5 -80v-298q0 -19 -13 -32t-32 -13h-100zM160 187q-23 0 -39 -16t-16 -39t16 -39 t39 -16h55v110h-55zM201 660q14 12 31.5 11t29.5 -14q11 -13 10 -31t-14 -30l-100 -90q-13 -12 -30.5 -11t-29.5 14q-12 14 -11 31.5t14 29.5z" />
<glyph unicode="&#xe2;" horiz-adv-x="352" d="M160 277h55v53q0 36 -33 49t-58 -12q-13 -13 -31.5 -13t-31.5 13t-13 32t13 32q31 31 73.5 39.5t82.5 -8.5t64 -53t24 -79v-298q0 -19 -13 -32t-32 -13h-100q-60 0 -102.5 42.5t-42.5 102.5t42.5 102.5t102.5 42.5zM160 187q-23 0 -39 -16t-16 -39t16 -39t39 -16h55v110 h-55zM205 640l90 -70q13 -11 15 -27t-8 -30q-10 -13 -27 -15.5t-30 8.5q-39 30 -65 51l-65 -51q-13 -11 -30 -8.5t-27 15.5q-11 13 -8.5 30t15.5 27l90 70q25 18 50 0z" />
<glyph unicode="&#xe3;" horiz-adv-x="352" d="M160 -13q-60 0 -102.5 42.5t-42.5 102.5t42.5 102.5t102.5 42.5h55v53q0 36 -33 49t-58 -12q-13 -13 -31.5 -13t-31.5 13t-13 32t13 32q31 31 73.5 39.5t82.5 -8.5t64 -53t24 -79v-298q0 -19 -13 -32t-32 -13h-100zM160 187q-22 0 -38.5 -16.5t-16.5 -38.5t16.5 -38.5 t38.5 -16.5h55v110h-55zM236 612q10 14 26.5 17.5t29.5 -5.5q14 -10 17.5 -26.5t-5.5 -30.5q-24 -35 -67 -43q-42 -8 -77 19l-8 6q-8 5 -15 3q-8 0 -13 -8q-10 -14 -26.5 -17.5t-29.5 5.5q-14 10 -17.5 26.5t5.5 30.5q24 35 67 43q42 8 77 -19l8 -6q8 -5 15 -3q8 0 13 8z " />
<glyph unicode="&#xe4;" horiz-adv-x="352" d="M160 277h55v53q0 36 -33 49t-58 -12q-13 -13 -31.5 -13t-31.5 13t-13 32t13 32q31 31 73.5 39.5t82.5 -8.5t64 -53t24 -79v-298q0 -19 -13 -32t-32 -13h-100q-60 0 -102.5 42.5t-42.5 102.5t42.5 102.5t102.5 42.5zM160 187q-22 0 -38.5 -16.5t-16.5 -38.5t16.5 -38.5 t38.5 -16.5h55v110h-55zM205 578q0 22 16.5 38.5t38.5 16.5t38.5 -16.5t16.5 -38.5t-16.5 -38.5t-38.5 -16.5t-38.5 16.5t-16.5 38.5zM100 523q-22 0 -38.5 16.5t-16.5 38.5t16.5 38.5t38.5 16.5t38.5 -16.5t16.5 -38.5t-16.5 -38.5t-38.5 -16.5z" />
<glyph unicode="&#xe5;" horiz-adv-x="352" d="M276 588q0 -40 -28 -68t-68 -28t-68 28t-28 68t28 68t68 28t68 -28t28 -68zM156 588q0 -10 7 -17t17 -7t17 7t7 17t-7 17t-17 7t-17 -7t-7 -17zM160 277h55v53q0 36 -33 49t-57 -12q-14 -13 -32.5 -13t-31.5 13t-13 32t13 32q31 31 73.5 39.5t82.5 -8.5t64 -53t24 -79 v-298q0 -19 -13 -32t-32 -13h-100q-60 0 -102.5 42.5t-42.5 102.5t42.5 102.5t102.5 42.5zM160 187q-22 0 -38.5 -16.5t-16.5 -38.5t16.5 -38.5t38.5 -16.5h55v110h-55z" />
<glyph unicode="&#xe6;" horiz-adv-x="541" d="M161 273h55v55q0 36 -34 51q-35 13 -60 -12q-14 -13 -32 -13t-32 13q-13 13 -13 31.5t13 31.5q31 31 74.5 40t83.5 -8q25 -10 45 -29q42 40 100 40q60 0 102.5 -42.5t42.5 -102.5v-100q0 -19 -13 -32t-32 -13h-155v-55q0 -36 34 -51q34 -14 60 12q13 13 31.5 13t31.5 -13 t13 -32t-13 -32q-31 -31 -74 -39.5t-84 8.5q-25 11 -44 29q-20 -19 -45 -29q-41 -17 -83.5 -8.5t-74.5 39.5q-31 32 -39.5 74.5t8.5 83.5q16 41 53 65.5t81 24.5zM216 128v55h-55q-38 0 -51 -34q-14 -34 12 -60q25 -25 60 -12q34 15 34 51zM306 328v-55h110v55 q0 22 -16 38.5t-39 16.5t-39 -16t-16 -39z" />
<glyph unicode="&#xe7;" horiz-adv-x="331" d="M133 462q40 17 83.5 8t74.5 -40q13 -13 13 -31.5t-13 -31.5t-32 -13t-32 13q-25 25 -60 12q-34 -15 -34 -51v-200q0 -36 34 -51q9 -4 20 -4h1h1q22 0 38 16q13 13 32 13t32 -13q13 -14 13 -32.5t-13 -31.5q-26 -24 -58 -35v-23q0 -71 -62 -109q-16 -9 -34 -4t-28 21 q-9 16 -4 34t21 27q17 12 17 31v23q-1 0 -4.5 2t-5.5 2q-41 17 -65.5 53.5t-24.5 80.5v200q0 44 24.5 80.5t65.5 53.5z" />
<glyph unicode="&#xe8;" horiz-adv-x="368" d="M291 25q-32 -31 -74.5 -39.5t-83.5 8.5t-65.5 53.5t-24.5 80.5v200q0 60 42.5 102.5t102.5 42.5t102.5 -42.5t42.5 -102.5v-100q0 -19 -13 -32t-32 -13h-155v-55q0 -36 34 -51q35 -13 60 12q13 13 32 13t32 -13q13 -14 13 -32.5t-13 -31.5zM188 383q-22 0 -38.5 -16.5 t-16.5 -38.5v-55h110v55q0 23 -16 39t-39 16zM167 660l100 -90q13 -12 14 -29.5t-11 -31.5q-12 -13 -29.5 -14t-30.5 11l-100 90q-13 12 -14 30t10 31q12 13 29.5 14t31.5 -11z" />
<glyph unicode="&#xe9;" horiz-adv-x="368" d="M133 -6q-41 17 -65.5 53.5t-24.5 80.5v200q0 60 42.5 102.5t102.5 42.5t102.5 -42.5t42.5 -102.5v-100q0 -19 -13 -32t-32 -13h-155v-55q0 -36 34 -51q35 -13 60 12q13 13 32 13t32 -13q13 -14 13 -32.5t-13 -31.5q-32 -31 -74.5 -39.5t-83.5 8.5zM188 383 q-22 0 -38.5 -16.5t-16.5 -38.5v-55h110v55q0 23 -16 39t-39 16zM210 660q13 12 30.5 11t29.5 -14q12 -14 11 -31.5t-14 -29.5l-100 -90q-14 -12 -31.5 -11t-29.5 14q-11 13 -10 31t14 30z" />
<glyph unicode="&#xea;" horiz-adv-x="368" d="M288 183h-155v-55q0 -36 34 -51q35 -13 60 12q13 13 32 13t32 -13q13 -14 13 -32.5t-13 -31.5q-32 -31 -74.5 -39.5t-83.5 8.5t-65.5 53.5t-24.5 80.5v200q0 60 42.5 102.5t102.5 42.5t102.5 -42.5t42.5 -102.5v-100q0 -19 -13 -32t-32 -13zM188 383q-22 0 -38.5 -16.5 t-16.5 -38.5v-55h110v55q0 23 -16 39t-39 16zM123 506q-13 -11 -30 -8.5t-27 15.5t-8 30t15 27l90 70q26 19 50 0l90 -70q13 -10 15.5 -27t-8.5 -30q-10 -13 -27 -15.5t-30 8.5q-39 30 -65 51z" />
<glyph unicode="&#xeb;" horiz-adv-x="368" d="M43 328q0 60 42.5 102.5t102.5 42.5t102.5 -42.5t42.5 -102.5v-100q0 -19 -13 -32t-32 -13h-155v-55q0 -36 34 -51q35 -13 60 12q13 13 32 13t32 -13q13 -14 13 -32.5t-13 -31.5q-32 -31 -74.5 -39.5t-83.5 8.5t-65.5 53.5t-24.5 80.5v200zM188 383q-22 0 -38.5 -16.5 t-16.5 -38.5v-55h110v55q0 23 -16 39t-39 16zM163 578q0 -23 -16 -39t-39 -16q-22 0 -38.5 16.5t-16.5 38.5t16.5 38.5t38.5 16.5q23 0 39 -16t16 -39zM268 523q-22 0 -38.5 16.5t-16.5 38.5t16.5 38.5t38.5 16.5q23 0 39 -16t16 -39t-16 -39t-39 -16z" />
<glyph unicode="&#xec;" horiz-adv-x="200" d="M162 509q-12 -13 -29.5 -14t-30.5 11l-100 90q-13 12 -14 30t11 31q11 13 29 14t31 -11l100 -90q13 -12 14 -30t-11 -31zM55 428q0 19 13.5 32t31.5 13q19 0 32 -13t13 -32v-400q0 -19 -13 -32t-32 -13q-18 0 -31.5 13t-13.5 32v400z" />
<glyph unicode="&#xed;" horiz-adv-x="200" d="M100 -17q-19 0 -32 13t-13 32v400q0 19 13 32t32 13q18 0 31.5 -13t13.5 -32v-400q0 -19 -13.5 -32t-31.5 -13zM141 660q14 12 31.5 11t28.5 -14q12 -13 11 -31t-14 -30l-100 -90q-13 -12 -30.5 -11t-29.5 14t-11 31t14 30z" />
<glyph unicode="&#xee;" horiz-adv-x="200" d="M-21 513q-11 13 -8.5 30t15.5 27l90 70q24 19 49 0l90 -70q13 -10 15.5 -27t-7.5 -30t-27 -15.5t-30 8.5q-39 30 -65 51l-66 -51q-13 -11 -29.5 -8.5t-26.5 15.5zM146 28q0 -19 -13.5 -32t-31.5 -13q-19 0 -32 13t-13 32v400q0 19 13 32t32 13q18 0 31.5 -13t13.5 -32 v-400z" />
<glyph unicode="&#xef;" horiz-adv-x="200" d="M75 578q0 -22 -16.5 -38.5t-38.5 -16.5q-23 0 -39 16t-16 39t16 39t39 16q22 0 38.5 -16.5t16.5 -38.5zM180 523q-23 0 -39 16t-16 39t16 39t39 16q22 0 38.5 -16.5t16.5 -38.5t-16.5 -38.5t-38.5 -16.5zM145 28q0 -19 -13 -32t-32 -13t-32 13t-13 32v400q0 19 13 32 t32 13t32 -13t13 -32v-400z" />
<glyph unicode="&#xf0;" horiz-adv-x="376" d="M43 328q0 60 42.5 102.5t102.5 42.5q7 0 21 -2q-14 27 -26 42l-31 -21q-15 -10 -32 -6t-28 18q-10 15 -6 32t18 28l19 12q-14 10 -21 14q-16 10 -19.5 28.5t7.5 34.5q10 16 28 19.5t34 -7.5q21 -14 48 -37l24 16q15 10 32.5 6t27.5 -18q10 -15 6 -32.5t-18 -27.5l-14 -9 q17 -23 27 -44q48 -90 48 -191v-200q0 -60 -42.5 -102.5t-102.5 -42.5t-102.5 42.5t-42.5 102.5v200zM243 128v200q0 22 -16.5 38.5t-38.5 16.5t-38.5 -16.5t-16.5 -38.5v-200q0 -22 16.5 -38.5t38.5 -16.5t38.5 16.5t16.5 38.5z" />
<glyph unicode="&#xf1;" horiz-adv-x="392" d="M144 544q-10 -14 -26.5 -17.5t-30.5 5.5q-14 10 -17 26.5t6 30.5q24 35 67 43q42 8 77 -19l8 -6q8 -5 15 -3q8 0 13 8q9 14 26 17.5t30 -5.5q14 -10 17.5 -26.5t-5.5 -30.5q-24 -35 -67 -43q-42 -8 -78 19l-8 6q-6 5 -15 3q-7 0 -12 -8zM55 424q0 19 13 32t32 13h100 q60 0 102.5 -42.5t42.5 -102.5v-296q0 -19 -13 -32t-32 -13t-32 13t-13 32v296q0 22 -16.5 38.5t-38.5 16.5h-55v-351q0 -19 -13 -32t-32 -13t-32 13t-13 32v396z" />
<glyph unicode="&#xf2;" horiz-adv-x="376" d="M209 506l-100 90q-13 12 -14 29.5t11 31.5q12 13 29.5 14t30.5 -11l100 -90q13 -12 14 -30t-10 -31q-12 -13 -29.5 -14t-31.5 11zM43 328q0 60 42.5 102.5t102.5 42.5t102.5 -42.5t42.5 -102.5v-200q0 -60 -42.5 -102.5t-102.5 -42.5t-102.5 42.5t-42.5 102.5v200z M188 383q-22 0 -38.5 -16.5t-16.5 -38.5v-200q0 -22 16.5 -38.5t38.5 -16.5t38.5 16.5t16.5 38.5v200q0 22 -16.5 38.5t-38.5 16.5z" />
<glyph unicode="&#xf3;" horiz-adv-x="376" d="M106 509q-12 14 -11 31.5t14 29.5l100 90q14 12 31.5 11t29.5 -14q12 -14 11 -31.5t-14 -29.5l-100 -90q-14 -12 -31.5 -11t-29.5 14zM333 128q0 -60 -42.5 -102.5t-102.5 -42.5t-102.5 42.5t-42.5 102.5v200q0 60 42.5 102.5t102.5 42.5t102.5 -42.5t42.5 -102.5v-200z M188 73q22 0 38.5 16.5t16.5 38.5v200q0 22 -16.5 38.5t-38.5 16.5t-38.5 -16.5t-16.5 -38.5v-200q0 -22 16.5 -38.5t38.5 -16.5z" />
<glyph unicode="&#xf4;" horiz-adv-x="376" d="M123 506q-13 -11 -30 -8.5t-27 15.5q-11 13 -8.5 30t15.5 27l90 70q25 18 50 0l90 -70q13 -11 15 -27t-8 -30q-10 -13 -27 -15.5t-30 8.5q-39 30 -65 51zM43 128v200q0 60 42.5 102.5t102.5 42.5t102.5 -42.5t42.5 -102.5v-200q0 -60 -42.5 -102.5t-102.5 -42.5 t-102.5 42.5t-42.5 102.5zM188 383q-22 0 -38.5 -16.5t-16.5 -38.5v-200q0 -22 16.5 -38.5t38.5 -16.5t38.5 16.5t16.5 38.5v200q0 22 -16.5 38.5t-38.5 16.5z" />
<glyph unicode="&#xf5;" horiz-adv-x="376" d="M64 589q26 35 67 43q42 8 77 -19l8 -6q8 -5 15 -3q8 0 13 8q10 14 26.5 17.5t30.5 -5.5q14 -10 17 -26.5t-6 -30.5q-23 -35 -67 -43q-42 -8 -77 19l-8 6q-8 5 -15 3q-8 0 -13 -8q-9 -14 -26 -17.5t-30 5.5q-14 10 -17.5 26.5t5.5 30.5zM43 128v200q0 60 42.5 102.5 t102.5 42.5t102.5 -42.5t42.5 -102.5v-200q0 -60 -42.5 -102.5t-102.5 -42.5t-102.5 42.5t-42.5 102.5zM188 383q-22 0 -38.5 -16.5t-16.5 -38.5v-200q0 -22 16.5 -38.5t38.5 -16.5t38.5 16.5t16.5 38.5v200q0 22 -16.5 38.5t-38.5 16.5z" />
<glyph unicode="&#xf6;" horiz-adv-x="376" d="M163 578q0 -22 -16.5 -38.5t-38.5 -16.5t-38.5 16.5t-16.5 38.5t16.5 38.5t38.5 16.5t38.5 -16.5t16.5 -38.5zM323 578q0 -22 -16.5 -38.5t-38.5 -16.5t-38.5 16.5t-16.5 38.5t16.5 38.5t38.5 16.5t38.5 -16.5t16.5 -38.5zM43 128v200q0 60 42.5 102.5t102.5 42.5 t102.5 -42.5t42.5 -102.5v-200q0 -60 -42.5 -102.5t-102.5 -42.5t-102.5 42.5t-42.5 102.5zM188 383q-22 0 -38.5 -16.5t-16.5 -38.5v-200q0 -22 16.5 -38.5t38.5 -16.5t38.5 16.5t16.5 38.5v200q0 22 -16.5 38.5t-38.5 16.5z" />
<glyph unicode="&#xf7;" d="M150 158q0 24 17 41t41 17t41 -17t17 -41t-17 -41t-41 -17t-41 17t-17 41zM208 360q-24 0 -41 17t-17 41t17 41t41 17t41 -17t17 -41t-17 -41t-41 -17zM376 288q0 -20 -14 -34t-34 -14h-240q-20 0 -34 14t-14 34t14 34t34 14h240q20 0 34 -14t14 -34z" />
<glyph unicode="&#xf8;" horiz-adv-x="386" d="M48 328q0 60 42.5 102.5t102.5 42.5q44 0 79 -24l24 40q9 16 26 20.5t32 -4.5q16 -9 20.5 -26t-4.5 -33l-41 -69q9 -23 9 -49v-200q0 -60 -42.5 -102.5t-102.5 -42.5q-43 0 -80 24l-23 -41q-9 -15 -26 -19.5t-33 4.5q-15 9 -19.5 26t4.5 32l41 70q-9 22 -9 49v200z M193 73q23 0 39 16.5t16 38.5v109l-89 -152q13 -12 34 -12zM193 383q-23 0 -39 -16.5t-16 -38.5v-109l89 152q-13 12 -34 12z" />
<glyph unicode="&#xf9;" horiz-adv-x="392" d="M271 570q13 -12 14 -29.5t-11 -31.5q-12 -13 -29.5 -14t-30.5 11l-100 90q-13 12 -14 30t11 31q11 13 28.5 14t31.5 -11zM292 473q19 0 32 -13t13 -32v-396q0 -19 -13 -32t-32 -13h-100q-60 0 -102.5 42.5t-42.5 102.5v296q0 19 13 32t32 13t32 -13t13 -32v-296 q0 -22 16.5 -38.5t38.5 -16.5h55v351q0 19 13 32t32 13z" />
<glyph unicode="&#xfa;" horiz-adv-x="392" d="M171 506q-14 -12 -31.5 -11t-28.5 14q-12 13 -11 31t14 30l100 90q13 12 30.5 11t29.5 -14t11 -31t-14 -30zM292 -13h-100q-60 0 -102.5 42.5t-42.5 102.5v296q0 19 13.5 32t31.5 13q19 0 32 -13t13 -32v-296q0 -22 16.5 -38.5t38.5 -16.5h55v351q0 19 13.5 32t31.5 13 q19 0 32 -13t13 -32v-396q0 -19 -13 -32t-32 -13z" />
<glyph unicode="&#xfb;" horiz-adv-x="392" d="M127 506q-13 -11 -30 -8.5t-27 15.5t-7.5 30t15.5 27l90 70q24 19 49 0l90 -70q13 -10 15.5 -27t-8.5 -30q-10 -13 -26.5 -15.5t-29.5 8.5q-40 30 -66 51zM47 428q0 19 13.5 32t31.5 13q19 0 32 -13t13 -32v-296q0 -22 16.5 -38.5t38.5 -16.5h55v351q0 19 13.5 32 t31.5 13q19 0 32 -13t13 -32v-396q0 -19 -13 -32t-32 -13h-100q-60 0 -102.5 42.5t-42.5 102.5v296z" />
<glyph unicode="&#xfc;" horiz-adv-x="392" d="M112 523q-22 0 -38.5 16.5t-16.5 38.5t16.5 38.5t38.5 16.5q23 0 39 -16t16 -39t-16 -39t-39 -16zM327 578q0 -23 -16 -39t-39 -16q-22 0 -38.5 16.5t-16.5 38.5t16.5 38.5t38.5 16.5q23 0 39 -16t16 -39zM47 132v296q0 19 13.5 32t31.5 13q19 0 32 -13t13 -32v-296 q0 -22 16.5 -38.5t38.5 -16.5h55v351q0 19 13.5 32t31.5 13q19 0 32 -13t13 -32v-396q0 -19 -13 -32t-32 -13h-100q-59 0 -102 42.5t-43 102.5z" />
<glyph unicode="&#xfd;" horiz-adv-x="369" d="M103 509q-12 13 -11 31t14 30l100 90q14 12 31.5 11t28.5 -14q12 -13 11 -31t-14 -30l-100 -90q-13 -12 -30.5 -11t-29.5 14zM50 -127q19 0 33.5 11t19.5 28l35 116l-117 387q-5 18 4 34.5t27 21.5q17 5 34 -3.5t22 -26.5l77 -256l76 256q6 18 22.5 26.5t33.5 3.5 q18 -5 27 -21.5t4 -34.5l-120 -400l-39 -129q-14 -47 -52 -74q-38 -29 -87 -29q-19 0 -32 13t-13 32t13 32t32 13z" />
<glyph unicode="&#xfe;" horiz-adv-x="388" d="M145 -172q0 -19 -13 -32t-32 -13t-32 13t-13 32v800q0 19 13 32t32 13t32 -13t13 -32v-155h55q60 0 102.5 -42.5t42.5 -102.5v-200q0 -60 -42.5 -102.5t-102.5 -42.5h-55v-155zM200 383h-55v-310h55q22 0 38.5 16.5t16.5 38.5v200q0 22 -16.5 38.5t-38.5 16.5z" />
<glyph unicode="&#xff;" horiz-adv-x="369" d="M320 578q0 -22 -16 -38.5t-39 -16.5t-39 16t-16 39t16 39t39 16t39 -16.5t16 -38.5zM105 523q-23 0 -39 16t-16 39t16 39t39 16t39 -16.5t16 -38.5t-16 -38.5t-39 -16.5zM189 -114q-14 -47 -52 -74q-38 -29 -87 -29q-19 0 -32 13t-13 32t13 32t32 13t33.5 11t19.5 28 l35 116l-116 387q-6 18 3 34.5t27 21.5t34.5 -3.5t21.5 -26.5l77 -256l77 256q5 18 21.5 26.5t34.5 3.5q17 -5 26 -21.5t4 -34.5l-120 -400z" />
<glyph unicode="&#x152;" horiz-adv-x="596" d="M208 -20q-70 0 -119 49t-49 119v340q0 70 49 119t119 49q44 0 83 -22q13 18 37 18h200q20 0 34 -14t14 -34t-14 -34t-34 -14h-152v-88v-92h132q20 0 34 -14t14 -34t-14 -34t-34 -14h-132v-112v-88h152q20 0 34 -14t14 -34t-14 -34t-34 -14h-200q-24 0 -37 18 q-39 -22 -83 -22zM208 560q-30 0 -51 -21t-21 -51v-340q0 -30 21 -51t51 -21t51 21t21 51v20v300v20q0 30 -21 51t-51 21z" />
<glyph unicode="&#x153;" horiz-adv-x="568" d="M332 -6q-26 11 -44 29q-42 -40 -100 -40q-60 0 -102.5 42.5t-42.5 102.5v200q0 60 42.5 102.5t102.5 42.5q58 0 100 -40q42 40 100 40q60 0 102.5 -42.5t42.5 -102.5v-100q0 -19 -13 -32t-32 -13h-155v-55q0 -36 34 -51q34 -14 60 12q13 13 31.5 13t31.5 -13 q14 -13 14 -32t-14 -32q-31 -31 -74 -39.5t-84 8.5zM388 383q-23 0 -39 -16t-16 -39v-55h110v55q0 22 -16.5 38.5t-38.5 16.5zM188 73q22 0 38.5 16.5t16.5 38.5v200q0 22 -16.5 38.5t-38.5 16.5q-23 0 -39 -16t-16 -39v-200q0 -23 16 -39t39 -16z" />
<glyph unicode="&#x178;" horiz-adv-x="402" d="M297 629q9 18 28 24.5t37 -2.5t24 -28t-3 -37l-135 -269v-289q0 -20 -14 -34t-34 -14t-34 14t-14 34v289l-135 269q-8 18 -2 37t24 28t36.5 2.5t27.5 -24.5q56 -111 97 -194zM222 778q0 24 17 41t41 17t41 -17t17 -41t-17 -41t-41 -17t-41 17t-17 41zM178 778 q0 -24 -17 -41t-41 -17t-41 17t-17 41t17 41t41 17t41 -17t17 -41z" />
<glyph unicode="&#x2c6;" horiz-adv-x="500" d="M185 506q-13 -11 -30 -8.5t-27 15.5t-8 30t15 27l90 70q26 19 50 0l90 -70q13 -10 15.5 -27t-8.5 -30q-10 -13 -27 -15.5t-30 8.5q-39 30 -65 51z" />
<glyph unicode="&#x2dc;" horiz-adv-x="500" d="M193 632q42 8 77 -19l8 -6q8 -5 15 -3q8 0 13 8q10 14 26.5 17.5t30.5 -5.5q14 -10 17 -26.5t-6 -30.5q-23 -35 -67 -43q-42 -8 -77 19l-8 6q-8 5 -15 3q-8 0 -13 -8q-9 -14 -26 -17.5t-30 5.5q-14 10 -17.5 26.5t5.5 30.5q26 35 67 43z" />
<glyph unicode="&#x2000;" horiz-adv-x="443" />
<glyph unicode="&#x2001;" horiz-adv-x="886" />
<glyph unicode="&#x2002;" horiz-adv-x="443" />
<glyph unicode="&#x2003;" horiz-adv-x="886" />
<glyph unicode="&#x2004;" horiz-adv-x="295" />
<glyph unicode="&#x2005;" horiz-adv-x="221" />
<glyph unicode="&#x2006;" horiz-adv-x="147" />
<glyph unicode="&#x2007;" horiz-adv-x="147" />
<glyph unicode="&#x2008;" horiz-adv-x="110" />
<glyph unicode="&#x2009;" horiz-adv-x="177" />
<glyph unicode="&#x200a;" horiz-adv-x="49" />
<glyph unicode="&#x2010;" d="M88 240q-20 0 -34 14t-14 34t14 34t34 14h240q20 0 34 -14t14 -34t-14 -34t-34 -14h-240z" />
<glyph unicode="&#x2011;" d="M88 240q-20 0 -34 14t-14 34t14 34t34 14h240q20 0 34 -14t14 -34t-14 -34t-34 -14h-240z" />
<glyph unicode="&#x2012;" d="M88 240q-20 0 -34 14t-14 34t14 34t34 14h240q20 0 34 -14t14 -34t-14 -34t-34 -14h-240z" />
<glyph unicode="&#x2013;" horiz-adv-x="500" d="M548 288q0 -20 -14 -34t-34 -14h-500q-20 0 -34 14t-14 34t14 34t34 14h500q20 0 34 -14t14 -34z" />
<glyph unicode="&#x2014;" horiz-adv-x="1000" d="M0 240q-20 0 -34 14t-14 34t14 34t34 14h1000q20 0 34 -14t14 -34t-14 -34t-34 -14h-1000z" />
<glyph unicode="&#x2018;" horiz-adv-x="192" d="M157 512q0 -19 -13 -32.5t-32 -13.5h-32q-19 0 -32.5 13.5t-13.5 32.5v48q0 29 16.5 54t43.5 36q17 8 35 0.5t25 -25.5q7 -17 -0.5 -34.5t-24.5 -24.5q-4 -2 -4 -6v-5q14 -4 23 -16t9 -27z" />
<glyph unicode="&#x2019;" horiz-adv-x="192" d="M62 550q4 2 4 6v4q-32 10 -32 44q0 19 13.5 32t32.5 13h32q19 0 32 -13t13 -32v-48q0 -30 -16.5 -54.5t-43.5 -35.5q-17 -7 -34.5 0t-24.5 24q-7 18 0 35t24 25z" />
<glyph unicode="&#x201a;" horiz-adv-x="191" d="M112 93q19 0 32 -13t13 -32v-48q0 -30 -16.5 -54.5t-43.5 -35.5q-17 -7 -34.5 0t-24.5 24q-7 18 0 35t24 25q4 2 4 6v4q-32 10 -32 44q0 19 13.5 32t32.5 13h32z" />
<glyph unicode="&#x201c;" horiz-adv-x="371" d="M309 566q-4 -1 -4 -6v-5q14 -4 23 -16t9 -27q0 -19 -13.5 -32.5t-32.5 -13.5h-32q-19 0 -32 13.5t-13 32.5v48q0 30 16 54.5t44 35.5q17 8 34.5 0.5t24.5 -25.5q7 -17 0 -34t-24 -25zM111 466h-32q-19 0 -32 13.5t-13 32.5v48q0 30 16 54.5t44 35.5q17 8 34.5 0.5 t24.5 -25.5q7 -17 0 -34t-24 -25q-4 -1 -4 -6v-5q14 -4 23 -16t9 -27q0 -19 -13.5 -32.5t-32.5 -13.5z" />
<glyph unicode="&#x201d;" horiz-adv-x="372" d="M63 550q4 2 4 6v4q-32 10 -32 44q0 19 13 32t32 13h32q19 0 32.5 -13t13.5 -32v-48q0 -30 -16.5 -54.5t-43.5 -35.5q-18 -7 -35 0t-25 24q-7 18 0 35t25 25zM243 550q4 2 4 6v4q-32 10 -32 44q0 19 13 32t32 13h32q19 0 32.5 -13t13.5 -32v-48q0 -30 -16.5 -54.5 t-43.5 -35.5q-18 -7 -35 0t-25 24q-7 18 0 35t25 25z" />
<glyph unicode="&#x201e;" horiz-adv-x="372" d="M157 0q0 -30 -16 -54.5t-44 -35.5q-17 -7 -34 0t-25 24q-7 18 0 35t24 25q4 1 4 6v4q-32 11 -32 44q0 19 13.5 32t32.5 13h32q19 0 32 -13t13 -32v-48zM242 -6q4 1 4 6v4q-32 11 -32 44q0 19 13.5 32t32.5 13h32q19 0 32 -13t13 -32v-48q0 -30 -16 -54.5t-44 -35.5 q-17 -7 -34 0t-25 24q-7 18 0 35t24 25z" />
<glyph unicode="&#x2022;" horiz-adv-x="256" d="M128 395q47 0 80 -33t33 -80t-33 -80t-80 -33q-46 0 -79.5 33.5t-33.5 79.5t33.5 79.5t79.5 33.5zM128 255q11 0 19 8t8 19t-8 19t-19 8t-19 -8t-8 -19t8 -19t19 -8z" />
<glyph unicode="&#x2026;" horiz-adv-x="576" d="M88 96q24 0 41 -17t17 -41t-17 -41t-41 -17t-41 17t-17 41t17 41t41 17zM230 38q0 24 17 41t41 17t41 -17t17 -41t-17 -41t-41 -17t-41 17t-17 41zM430 38q0 24 17 41t41 17t41 -17t17 -41t-17 -41t-41 -17t-41 17t-17 41z" />
<glyph unicode="&#x202f;" horiz-adv-x="177" />
<glyph unicode="&#x2039;" horiz-adv-x="239" d="M192 408q0 -12 -6 -23q-35 -64 -51 -93l55 -101q6 -11 6 -23q0 -28 -24 -42q-18 -10 -37 -4t-29 23l-68 123q-13 24 0 47l64 116q10 17 29 23t37 -4q24 -14 24 -42z" />
<glyph unicode="&#x203a;" horiz-adv-x="239" d="M43 168q0 12 6 23q39 70 56 101l-52 93q-6 11 -6 23q0 28 25 42q17 10 36.5 4t28.5 -23l64 -116q13 -23 0 -47l-68 -123q-9 -17 -28.5 -23t-36.5 4q-25 14 -25 42z" />
<glyph unicode="&#x205f;" horiz-adv-x="221" />
<glyph unicode="&#x20ac;" d="M231 557q-23 -6 -38 -25.5t-15 -43.5v-42h112q20 0 34 -14t14 -34t-14 -34t-34 -14h-112v-64h72q20 0 34 -14t14 -34t-14 -34t-34 -14h-72v-42q0 -25 15 -44t38 -26q23 -6 46 3.5t35 30.5l10 17q10 17 29.5 22.5t36.5 -4.5t22 -29.5t-5 -36.5l-10 -17q-28 -49 -81 -71 t-108 -7q-55 14 -89.5 59.5t-34.5 102.5v42h-32q-20 0 -34 14t-14 34t14 34t34 14h32v64h-32q-20 0 -34 14t-14 34t14 34t34 14h32v42q0 57 34.5 102.5t89.5 59.5q55 15 108 -7t81 -71l10 -17q10 -17 5 -36.5t-22 -29.5t-36.5 -4.5t-29.5 22.5l-10 17q-12 21 -35 30.5 t-46 2.5z" />
<glyph unicode="&#x2122;" horiz-adv-x="670" d="M414 634q34 -47 63 -88l63 88q20 27 51 17q32 -10 32 -43v-300q0 -19 -13.5 -32.5t-32.5 -13.5t-32 13.5t-13 32.5v158l-18 -24q-13 -20 -37 -20q-22 0 -37 20q-12 17 -17 24v-158q0 -19 -13.5 -32.5t-32.5 -13.5t-32 13.5t-13 32.5v300q0 33 31 43q32 10 51 -17z M157 262q-19 0 -32 13.5t-13 32.5v250h-55q-19 0 -32 13.5t-13 32.5t13 32t32 13h200q19 0 32.5 -13t13.5 -32t-13.5 -32.5t-32.5 -13.5h-54v-250q0 -19 -13.5 -32.5t-32.5 -13.5z" />
</font>
</defs>
</svg>
